<?xml version="1.0" encoding="UTF-8" standalone="no"?>
<!-- Created with Inkscape (http://www.inkscape.org/) -->

<svg
   width="36.47731mm"
   height="36.872375mm"
   viewBox="0 0 36.47731 36.872376"
   version="1.1"
   id="svg1"
   inkscape:version="1.4.3 (1:1.4.3+202512261034+0d15f75042)"
   sodipodi:docname="lookup_b.svg"
   inkscape:export-filename="lookup_b.pdf"
   inkscape:export-xdpi="96"
   inkscape:export-ydpi="96"
   xmlns:inkscape="http://www.inkscape.org/namespaces/inkscape"
   xmlns:sodipodi="http://sodipodi.sourceforge.net/DTD/sodipodi-0.dtd"
   xmlns="http://www.w3.org/2000/svg"
   xmlns:svg="http://www.w3.org/2000/svg"
   xmlns:ns18="http://www.iki.fi/pav/software/textext/">
  <sodipodi:namedview
     id="namedview1"
     pagecolor="#505050"
     bordercolor="#ffffff"
     borderopacity="1"
     inkscape:showpageshadow="0"
     inkscape:pageopacity="0"
     inkscape:pagecheckerboard="1"
     inkscape:deskcolor="#505050"
     inkscape:document-units="mm"
     showgrid="false"
     inkscape:zoom="7.2726876"
     inkscape:cx="39.462715"
     inkscape:cy="41.731478"
     inkscape:window-width="3840"
     inkscape:window-height="2096"
     inkscape:window-x="1080"
     inkscape:window-y="27"
     inkscape:window-maximized="1"
     inkscape:current-layer="layer1" />
  <defs
     id="defs1" />
  <g
     inkscape:label="Layer 1"
     inkscape:groupmode="layer"
     id="layer1"
     transform="translate(-96.787556,-43.724239)">
    <path
       style="fill:none;stroke:#000000;stroke-width:0.466;stroke-linecap:round;stroke-linejoin:bevel;stroke-miterlimit:2.6"
       d="M 132.02009,54.881002 115.10088,79.290296 M 98.229268,55.068171 132.02434,54.92069 m -33.265904,1.205814 m 16.298934,23.188821 -16.878178,-24.263772 16.410338,-8.88998 17.43056,8.719429"
       id="path3-5-0"
       sodipodi:nodetypes="cccccc" />
    <ellipse
       style="display:inline;fill:#788ed2;fill-opacity:1;stroke:#000000;stroke-width:0.35;stroke-linecap:round;stroke-dasharray:none;stroke-opacity:1"
       id="path1-2-9-6-7-7"
       cx="98.149879"
       cy="54.928226"
       rx="1.1873231"
       ry="1.187323" />
    <ellipse
       style="display:inline;fill:#788ed2;fill-opacity:1;stroke:#000000;stroke-width:0.35;stroke-linecap:round;stroke-dasharray:none;stroke-opacity:1"
       id="path1-2-9-6-7-7-1"
       cx="131.90254"
       cy="54.799896"
       rx="1.1873231"
       ry="1.187323" />
    <ellipse
       style="display:inline;fill:#788ed2;fill-opacity:1;stroke:#000000;stroke-width:0.35;stroke-linecap:round;stroke-dasharray:none;stroke-opacity:1"
       id="path1-2-9-6-7-7-1-4"
       cx="115.02621"
       cy="79.234291"
       rx="1.1873231"
       ry="1.187323" />
    <ellipse
       style="display:inline;fill:#7bd278;fill-opacity:1;stroke:#000000;stroke-width:0.35;stroke-linecap:round;stroke-dasharray:none;stroke-opacity:1"
       id="path1-2-9-1-3"
       cx="114.54931"
       cy="46.161282"
       rx="1.1873231"
       ry="1.187323" />
    <ellipse
       style="display:inline;fill:#d27878;fill-opacity:1;stroke:#000000;stroke-width:0.35;stroke-linecap:round;stroke-dasharray:none;stroke-opacity:1"
       id="path1-2-9-4"
       cx="114.45103"
       cy="56.681149"
       rx="1.1873231"
       ry="1.187323" />
    <g
       transform="matrix(0.39178217,0,0,0.39178217,162.368,67.994549)"
       ns18:version="1.10.2"
       ns18:texconverter="pdflatex"
       ns18:pdfconverter="inkscape"
       ns18:text="$\\begin{pmatrix} 4 \\\\ 1 \\end{pmatrix}$\n\n$\\begin{pmatrix} 3 \\\\ 3 \\end{pmatrix}$\n\n$\\begin{pmatrix} 1 \\\\ 4 \\end{pmatrix}$\n\n4\n\n3\n\n1\n\n0\n\n$w_1$"
       ns18:preamble="/home/michael/.config/inkscape/extensions/textext/default_packages.tex"
       ns18:scale="1.6"
       ns18:alignment="middle center"
       ns18:stroke-to-path="0"
       ns18:inkscapeversion="1.4.3"
       ns18:jacobian_sqrt="0.564445"
       id="g22">
      <defs
         id="id-a18d6859-fbe0-4e92-8b36-bef6939d5791">
        <g
           id="id-2efa7773-3999-4c48-88d1-84d942956e9e">
          <symbol
             overflow="visible"
             id="id-aaa9fc38-91f4-4b50-a3a3-725f788cfa58">
            <path
               style="stroke:none;stroke-width:0"
               d=""
               id="id-c17695e0-1cd3-4420-a782-a0d73ec21ad0" />
          </symbol>
          <symbol
             overflow="visible"
             id="id-869389dc-e018-4d80-9ded-cbefe5f3e811">
            <path
               style="stroke:none;stroke-width:0"
               d="m 6.984375,23.421875 c 0,-0.04687 -0.03125,-0.0625 -0.046875,-0.09375 -0.375,-0.375 -1.03125,-1.03125 -1.703125,-2.109375 C 3.625,18.640625 2.90625,15.40625 2.90625,11.5625 c 0,-2.6875 0.359375,-6.140625 2,-9.109375 C 5.6875,1.03125 6.515625,0.21875 6.953125,-0.21875 c 0.03125,-0.03125 0.03125,-0.046875 0.03125,-0.078125 0,-0.109375 -0.078125,-0.109375 -0.21875,-0.109375 -0.140625,0 -0.15625,0 -0.3125,0.15625 -3.328125,3.046875 -4.375,7.609375 -4.375,11.796875 0,3.921875 0.890625,7.875 3.421875,10.859375 0.203125,0.21875 0.578125,0.625 0.984375,0.984375 0.125,0.125 0.140625,0.125 0.28125,0.125 0.140625,0 0.21875,0 0.21875,-0.09375 z m 0,0"
               id="id-36adfd63-06e7-491c-b9b3-0cb52e3eca58" />
          </symbol>
          <symbol
             overflow="visible"
             id="id-a07b290d-e73c-459f-8c24-1ac772363302">
            <path
               style="stroke:none;stroke-width:0"
               d="M 5.25,11.5625 C 5.25,7.640625 4.359375,3.703125 1.828125,0.71875 1.625,0.484375 1.25,0.078125 0.84375,-0.28125 c -0.125,-0.125 -0.140625,-0.125 -0.28125,-0.125 -0.125,0 -0.21875,0 -0.21875,0.109375 0,0.03125 0.046875,0.078125 0.0625,0.09375 0.34375,0.359375 1.015625,1.03125 1.6875,2.109375 1.609375,2.5625 2.328125,5.8125 2.328125,9.640625 0,2.6875 -0.359375,6.140625 -2,9.125 -0.78125,1.40625 -1.609375,2.234375 -2.03125,2.65625 -0.015625,0.03125 -0.046875,0.0625 -0.046875,0.09375 0,0.09375 0.09375,0.09375 0.21875,0.09375 0.140625,0 0.15625,0 0.3125,-0.15625 C 4.203125,20.328125 5.25,15.765625 5.25,11.5625 Z m 0,0"
               id="id-20328da8-8661-4895-bd73-731a6850ec47" />
          </symbol>
          <symbol
             overflow="visible"
             id="id-08efb1aa-2bfe-49e8-bba1-104ec4683e24">
            <path
               style="stroke:none;stroke-width:0"
               d=""
               id="id-c6e859d5-835a-4851-ba4b-2d843a2a3cd8" />
          </symbol>
          <symbol
             overflow="visible"
             id="id-1d8b3742-e332-4401-8e25-5ebd8337e81c">
            <path
               style="stroke:none;stroke-width:0"
               d="m 2.9375,-1.640625 v 0.859375 c 0,0.359375 -0.03125,0.46875 -0.765625,0.46875 H 1.96875 V 0 C 2.375,-0.03125 2.890625,-0.03125 3.3125,-0.03125 c 0.421875,0 0.9375,0 1.359375,0.03125 v -0.3125 h -0.21875 c -0.734375,0 -0.75,-0.109375 -0.75,-0.46875 V -1.640625 H 4.6875 v -0.3125 H 3.703125 v -4.53125 c 0,-0.203125 0,-0.265625 -0.171875,-0.265625 -0.078125,0 -0.109375,0 -0.1875,0.125 l -3.0625,4.671875 v 0.3125 z m 0.046875,-0.3125 H 0.5625 l 2.421875,-3.71875 z m 0,0"
               id="id-1dea63a9-68af-432a-b61a-1ce340055c45" />
          </symbol>
          <symbol
             overflow="visible"
             id="id-2cf41ae7-59b1-4e14-acc9-bc70d44961ca">
            <path
               style="stroke:none;stroke-width:0"
               d="m 2.9375,-6.375 c 0,-0.25 0,-0.265625 -0.234375,-0.265625 C 2.078125,-6 1.203125,-6 0.890625,-6 v 0.3125 c 0.203125,0 0.78125,0 1.296875,-0.265625 v 5.171875 c 0,0.359375 -0.03125,0.46875 -0.921875,0.46875 h -0.3125 V 0 c 0.34375,-0.03125 1.203125,-0.03125 1.609375,-0.03125 0.390625,0 1.265625,0 1.609375,0.03125 v -0.3125 h -0.3125 c -0.90625,0 -0.921875,-0.109375 -0.921875,-0.46875 z m 0,0"
               id="id-aea1e4f7-ec81-488b-a13e-67539b7aa042" />
          </symbol>
          <symbol
             overflow="visible"
             id="id-39bfc0f8-d2bb-4566-bedc-62b5a576b518">
            <path
               style="stroke:none;stroke-width:0"
               d="m 2.890625,-3.515625 c 0.8125,-0.265625 1.390625,-0.953125 1.390625,-1.75 0,-0.8125 -0.875,-1.375 -1.828125,-1.375 -1,0 -1.765625,0.59375 -1.765625,1.359375 0,0.328125 0.21875,0.515625 0.515625,0.515625 0.296875,0 0.5,-0.21875 0.5,-0.515625 0,-0.484375 -0.46875,-0.484375 -0.609375,-0.484375 0.296875,-0.5 0.953125,-0.625 1.3125,-0.625 0.421875,0 0.96875,0.21875 0.96875,1.109375 0,0.125 -0.03125,0.703125 -0.28125,1.140625 C 2.796875,-3.65625 2.453125,-3.625 2.203125,-3.625 2.125,-3.609375 1.890625,-3.59375 1.8125,-3.59375 c -0.078125,0.015625 -0.140625,0.03125 -0.140625,0.125 0,0.109375 0.0625,0.109375 0.234375,0.109375 h 0.4375 c 0.8125,0 1.1875,0.671875 1.1875,1.65625 0,1.359375 -0.6875,1.640625 -1.125,1.640625 -0.4375,0 -1.1875,-0.171875 -1.53125,-0.75 0.34375,0.046875 0.65625,-0.171875 0.65625,-0.546875 0,-0.359375 -0.265625,-0.5625 -0.546875,-0.5625 -0.25,0 -0.5625,0.140625 -0.5625,0.578125 0,0.90625 0.921875,1.5625 2.015625,1.5625 1.21875,0 2.125,-0.90625 2.125,-1.921875 0,-0.8125 -0.640625,-1.59375 -1.671875,-1.8125 z m 0,0"
               id="id-bc986b4f-bb2c-4e1a-ada3-cb01cbef3776" />
          </symbol>
          <symbol
             overflow="visible"
             id="id-f9eb498c-1189-467e-b0a4-bf3078e3247f">
            <path
               style="stroke:none;stroke-width:0"
               d="m 4.578125,-3.1875 c 0,-0.796875 -0.046875,-1.59375 -0.390625,-2.328125 -0.453125,-0.96875 -1.28125,-1.125 -1.6875,-1.125 -0.609375,0 -1.328125,0.265625 -1.75,1.1875 -0.3125,0.6875 -0.359375,1.46875 -0.359375,2.265625 0,0.75 0.03125,1.640625 0.453125,2.40625 0.421875,0.796875 1.15625,1 1.640625,1 0.53125,0 1.296875,-0.203125 1.734375,-1.15625 0.3125,-0.6875 0.359375,-1.46875 0.359375,-2.25 z M 2.484375,0 C 2.09375,0 1.5,-0.25 1.328125,-1.203125 1.21875,-1.796875 1.21875,-2.71875 1.21875,-3.3125 c 0,-0.640625 0,-1.296875 0.078125,-1.828125 0.1875,-1.1875 0.9375,-1.28125 1.1875,-1.28125 0.328125,0 0.984375,0.1875 1.171875,1.171875 0.109375,0.5625 0.109375,1.3125 0.109375,1.9375 0,0.75 0,1.421875 -0.109375,2.0625 C 3.5,-0.296875 2.9375,0 2.484375,0 Z m 0,0"
               id="id-0c817156-6874-4491-b4fc-c1f255a192c8" />
          </symbol>
          <symbol
             overflow="visible"
             id="id-6c422243-24d5-49c6-98e1-d1a823fe94e8">
            <path
               style="stroke:none;stroke-width:0"
               d=""
               id="id-c4386af9-7896-4702-8ed2-22d7c8e5429e" />
          </symbol>
          <symbol
             overflow="visible"
             id="id-a2311a8b-b95f-4d33-ad61-53828a8c7539">
            <path
               style="stroke:none;stroke-width:0"
               d="M 4.609375,-3.375 C 4.65625,-3.59375 4.75,-3.96875 4.75,-4.03125 c 0,-0.171875 -0.140625,-0.265625 -0.28125,-0.265625 -0.125,0 -0.296875,0.078125 -0.375,0.28125 -0.03125,0.0625 -0.5,1.96875 -0.5625,2.234375 C 3.453125,-1.484375 3.4375,-1.3125 3.4375,-1.125 c 0,0.109375 0,0.125 0.015625,0.171875 -0.234375,0.53125 -0.53125,0.84375 -0.921875,0.84375 -0.796875,0 -0.796875,-0.734375 -0.796875,-0.90625 0,-0.3125 0.046875,-0.703125 0.515625,-1.9375 0.109375,-0.296875 0.171875,-0.4375 0.171875,-0.640625 0,-0.4375 -0.328125,-0.8125 -0.8125,-0.8125 -0.953125,0 -1.3125,1.453125 -1.3125,1.53125 0,0.109375 0.09375,0.109375 0.109375,0.109375 0.109375,0 0.109375,-0.03125 0.15625,-0.1875 C 0.84375,-3.875 1.21875,-4.1875 1.578125,-4.1875 c 0.09375,0 0.25,0.015625 0.25,0.328125 0,0.25 -0.109375,0.53125 -0.1875,0.703125 -0.4375,1.171875 -0.546875,1.625 -0.546875,2.015625 0,0.90625 0.65625,1.25 1.40625,1.25 0.171875,0 0.640625,0 1.03125,-0.703125 0.265625,0.640625 0.953125,0.703125 1.25,0.703125 0.75,0 1.1875,-0.625 1.453125,-1.21875 0.328125,-0.78125 0.65625,-2.125 0.65625,-2.59375 0,-0.546875 -0.265625,-0.703125 -0.4375,-0.703125 -0.25,0 -0.5,0.265625 -0.5,0.484375 0,0.125 0.0625,0.1875 0.140625,0.265625 0.109375,0.109375 0.359375,0.359375 0.359375,0.84375 0,0.34375 -0.28125,1.3125 -0.546875,1.828125 -0.25,0.53125 -0.609375,0.875 -1.09375,0.875 -0.46875,0 -0.734375,-0.296875 -0.734375,-0.875 0,-0.265625 0.0625,-0.578125 0.109375,-0.71875 z m 0,0"
               id="id-1ff69596-0037-4d0f-8f55-5e0250148c52" />
          </symbol>
          <symbol
             overflow="visible"
             id="id-df1da44c-626f-4524-99fb-0aea29180ac8">
            <path
               style="stroke:none;stroke-width:0"
               d=""
               id="id-86a6e899-7ff6-4559-bd61-ef85a07cb9e7" />
          </symbol>
          <symbol
             overflow="visible"
             id="id-3eb99388-7094-43e5-a5be-b9c7d086c1ef">
            <path
               style="stroke:none;stroke-width:0"
               d="m 2.328125,-4.4375 c 0,-0.1875 0,-0.1875 -0.203125,-0.1875 -0.453125,0.4375 -1.078125,0.4375 -1.359375,0.4375 v 0.25 c 0.15625,0 0.625,0 1,-0.1875 v 3.546875 c 0,0.234375 0,0.328125 -0.6875,0.328125 H 0.8125 V 0 c 0.125,0 0.984375,-0.03125 1.234375,-0.03125 0.21875,0 1.09375,0.03125 1.25,0.03125 V -0.25 H 3.03125 c -0.703125,0 -0.703125,-0.09375 -0.703125,-0.328125 z m 0,0"
               id="id-b2448122-b4e0-465f-99ee-19061dd17dee" />
          </symbol>
        </g>
      </defs>
      <g
         id="id-380b625e-64b1-441d-b0bf-d3ad0db667ee"
         transform="translate(-148.993,-124.794)" />
    </g>
    <g
       style="fill:#000000;fill-opacity:1"
       id="id-4553eb72-3ad1-48b8-af13-517ba390e8a8"
       transform="matrix(0.39178217,0,0,0.39178217,103.9952,19.102485)" />
    <circle
       style="fill:none;stroke:#d27878;stroke-width:0.201;stroke-linecap:round;stroke-linejoin:bevel;stroke-miterlimit:2.6;stroke-dasharray:0.201, 0.603;stroke-dashoffset:0"
       id="path1"
       cx="114.45103"
       cy="56.681149"
       r="12.857626" />
  </g>
</svg>
