<?xml version="1.0" encoding="UTF-8" standalone="no"?>
<!-- Created with Inkscape (http://www.inkscape.org/) -->

<svg
   width="110.56088mm"
   height="48.050579mm"
   viewBox="0 0 110.56088 48.05058"
   version="1.1"
   id="svg1"
   inkscape:version="1.4.3 (1:1.4.3+202512261034+0d15f75042)"
   sodipodi:docname="non_conforming_example.svg"
   inkscape:export-filename="non_conforming_example.pdf"
   inkscape:export-xdpi="96"
   inkscape:export-ydpi="96"
   xmlns:inkscape="http://www.inkscape.org/namespaces/inkscape"
   xmlns:sodipodi="http://sodipodi.sourceforge.net/DTD/sodipodi-0.dtd"
   xmlns="http://www.w3.org/2000/svg"
   xmlns:svg="http://www.w3.org/2000/svg"
   xmlns:ns18="http://www.iki.fi/pav/software/textext/">
  <sodipodi:namedview
     id="namedview1"
     pagecolor="#505050"
     bordercolor="#ffffff"
     borderopacity="1"
     inkscape:showpageshadow="0"
     inkscape:pageopacity="0"
     inkscape:pagecheckerboard="1"
     inkscape:deskcolor="#505050"
     inkscape:document-units="mm"
     showgrid="false"
     inkscape:zoom="7.3040768"
     inkscape:cx="157.99396"
     inkscape:cy="107.54268"
     inkscape:window-width="3840"
     inkscape:window-height="2096"
     inkscape:window-x="1080"
     inkscape:window-y="27"
     inkscape:window-maximized="1"
     inkscape:current-layer="layer1" />
  <defs
     id="defs1" />
  <g
     inkscape:label="Layer 1"
     inkscape:groupmode="layer"
     id="layer1"
     transform="translate(-32.58008,-38.299456)">
    <path
       style="fill:none;stroke:#000000;stroke-width:0.466;stroke-linecap:round;stroke-linejoin:bevel;stroke-miterlimit:2.6;stroke-dasharray:none;stroke-opacity:1"
       d="M 111.36742,81.333641 132.99318,80.9714"
       id="path18" />
    <path
       style="fill:none;stroke:#000000;stroke-width:0.466;stroke-linecap:round;stroke-linejoin:bevel;stroke-miterlimit:2.6;stroke-dasharray:none;stroke-opacity:1"
       d="m 122.6331,63.076714 10.46875,17.967134"
       id="path19" />
    <path
       style="fill:none;stroke:#a63939;stroke-width:0.466;stroke-linecap:round;stroke-linejoin:bevel;stroke-miterlimit:2.6;stroke-dasharray:none;stroke-opacity:1"
       d="M 111.47371,43.418198 122.6862,63.080669"
       id="path14" />
    <g
       transform="matrix(0.39178217,0,0,0.39178217,162.368,67.994549)"
       ns18:version="1.10.2"
       ns18:texconverter="pdflatex"
       ns18:pdfconverter="inkscape"
       ns18:text="$\\begin{pmatrix} 4 \\\\ 1 \\end{pmatrix}$\n\n$\\begin{pmatrix} 3 \\\\ 3 \\end{pmatrix}$\n\n$\\begin{pmatrix} 1 \\\\ 4 \\end{pmatrix}$\n\n4\n\n3\n\n1\n\n0\n\n$w_1$"
       ns18:preamble="/home/michael/.config/inkscape/extensions/textext/default_packages.tex"
       ns18:scale="1.6"
       ns18:alignment="middle center"
       ns18:stroke-to-path="0"
       ns18:inkscapeversion="1.4.3"
       ns18:jacobian_sqrt="0.564445"
       id="g22">
      <defs
         id="id-a18d6859-fbe0-4e92-8b36-bef6939d5791">
        <g
           id="id-2efa7773-3999-4c48-88d1-84d942956e9e">
          <symbol
             overflow="visible"
             id="id-aaa9fc38-91f4-4b50-a3a3-725f788cfa58">
            <path
               style="stroke:none;stroke-width:0"
               d=""
               id="id-c17695e0-1cd3-4420-a782-a0d73ec21ad0" />
          </symbol>
          <symbol
             overflow="visible"
             id="id-869389dc-e018-4d80-9ded-cbefe5f3e811">
            <path
               style="stroke:none;stroke-width:0"
               d="m 6.984375,23.421875 c 0,-0.04687 -0.03125,-0.0625 -0.046875,-0.09375 -0.375,-0.375 -1.03125,-1.03125 -1.703125,-2.109375 C 3.625,18.640625 2.90625,15.40625 2.90625,11.5625 c 0,-2.6875 0.359375,-6.140625 2,-9.109375 C 5.6875,1.03125 6.515625,0.21875 6.953125,-0.21875 c 0.03125,-0.03125 0.03125,-0.046875 0.03125,-0.078125 0,-0.109375 -0.078125,-0.109375 -0.21875,-0.109375 -0.140625,0 -0.15625,0 -0.3125,0.15625 -3.328125,3.046875 -4.375,7.609375 -4.375,11.796875 0,3.921875 0.890625,7.875 3.421875,10.859375 0.203125,0.21875 0.578125,0.625 0.984375,0.984375 0.125,0.125 0.140625,0.125 0.28125,0.125 0.140625,0 0.21875,0 0.21875,-0.09375 z m 0,0"
               id="id-36adfd63-06e7-491c-b9b3-0cb52e3eca58" />
          </symbol>
          <symbol
             overflow="visible"
             id="id-a07b290d-e73c-459f-8c24-1ac772363302">
            <path
               style="stroke:none;stroke-width:0"
               d="M 5.25,11.5625 C 5.25,7.640625 4.359375,3.703125 1.828125,0.71875 1.625,0.484375 1.25,0.078125 0.84375,-0.28125 c -0.125,-0.125 -0.140625,-0.125 -0.28125,-0.125 -0.125,0 -0.21875,0 -0.21875,0.109375 0,0.03125 0.046875,0.078125 0.0625,0.09375 0.34375,0.359375 1.015625,1.03125 1.6875,2.109375 1.609375,2.5625 2.328125,5.8125 2.328125,9.640625 0,2.6875 -0.359375,6.140625 -2,9.125 -0.78125,1.40625 -1.609375,2.234375 -2.03125,2.65625 -0.015625,0.03125 -0.046875,0.0625 -0.046875,0.09375 0,0.09375 0.09375,0.09375 0.21875,0.09375 0.140625,0 0.15625,0 0.3125,-0.15625 C 4.203125,20.328125 5.25,15.765625 5.25,11.5625 Z m 0,0"
               id="id-20328da8-8661-4895-bd73-731a6850ec47" />
          </symbol>
          <symbol
             overflow="visible"
             id="id-08efb1aa-2bfe-49e8-bba1-104ec4683e24">
            <path
               style="stroke:none;stroke-width:0"
               d=""
               id="id-c6e859d5-835a-4851-ba4b-2d843a2a3cd8" />
          </symbol>
          <symbol
             overflow="visible"
             id="id-1d8b3742-e332-4401-8e25-5ebd8337e81c">
            <path
               style="stroke:none;stroke-width:0"
               d="m 2.9375,-1.640625 v 0.859375 c 0,0.359375 -0.03125,0.46875 -0.765625,0.46875 H 1.96875 V 0 C 2.375,-0.03125 2.890625,-0.03125 3.3125,-0.03125 c 0.421875,0 0.9375,0 1.359375,0.03125 v -0.3125 h -0.21875 c -0.734375,0 -0.75,-0.109375 -0.75,-0.46875 V -1.640625 H 4.6875 v -0.3125 H 3.703125 v -4.53125 c 0,-0.203125 0,-0.265625 -0.171875,-0.265625 -0.078125,0 -0.109375,0 -0.1875,0.125 l -3.0625,4.671875 v 0.3125 z m 0.046875,-0.3125 H 0.5625 l 2.421875,-3.71875 z m 0,0"
               id="id-1dea63a9-68af-432a-b61a-1ce340055c45" />
          </symbol>
          <symbol
             overflow="visible"
             id="id-2cf41ae7-59b1-4e14-acc9-bc70d44961ca">
            <path
               style="stroke:none;stroke-width:0"
               d="m 2.9375,-6.375 c 0,-0.25 0,-0.265625 -0.234375,-0.265625 C 2.078125,-6 1.203125,-6 0.890625,-6 v 0.3125 c 0.203125,0 0.78125,0 1.296875,-0.265625 v 5.171875 c 0,0.359375 -0.03125,0.46875 -0.921875,0.46875 h -0.3125 V 0 c 0.34375,-0.03125 1.203125,-0.03125 1.609375,-0.03125 0.390625,0 1.265625,0 1.609375,0.03125 v -0.3125 h -0.3125 c -0.90625,0 -0.921875,-0.109375 -0.921875,-0.46875 z m 0,0"
               id="id-aea1e4f7-ec81-488b-a13e-67539b7aa042" />
          </symbol>
          <symbol
             overflow="visible"
             id="id-39bfc0f8-d2bb-4566-bedc-62b5a576b518">
            <path
               style="stroke:none;stroke-width:0"
               d="m 2.890625,-3.515625 c 0.8125,-0.265625 1.390625,-0.953125 1.390625,-1.75 0,-0.8125 -0.875,-1.375 -1.828125,-1.375 -1,0 -1.765625,0.59375 -1.765625,1.359375 0,0.328125 0.21875,0.515625 0.515625,0.515625 0.296875,0 0.5,-0.21875 0.5,-0.515625 0,-0.484375 -0.46875,-0.484375 -0.609375,-0.484375 0.296875,-0.5 0.953125,-0.625 1.3125,-0.625 0.421875,0 0.96875,0.21875 0.96875,1.109375 0,0.125 -0.03125,0.703125 -0.28125,1.140625 C 2.796875,-3.65625 2.453125,-3.625 2.203125,-3.625 2.125,-3.609375 1.890625,-3.59375 1.8125,-3.59375 c -0.078125,0.015625 -0.140625,0.03125 -0.140625,0.125 0,0.109375 0.0625,0.109375 0.234375,0.109375 h 0.4375 c 0.8125,0 1.1875,0.671875 1.1875,1.65625 0,1.359375 -0.6875,1.640625 -1.125,1.640625 -0.4375,0 -1.1875,-0.171875 -1.53125,-0.75 0.34375,0.046875 0.65625,-0.171875 0.65625,-0.546875 0,-0.359375 -0.265625,-0.5625 -0.546875,-0.5625 -0.25,0 -0.5625,0.140625 -0.5625,0.578125 0,0.90625 0.921875,1.5625 2.015625,1.5625 1.21875,0 2.125,-0.90625 2.125,-1.921875 0,-0.8125 -0.640625,-1.59375 -1.671875,-1.8125 z m 0,0"
               id="id-bc986b4f-bb2c-4e1a-ada3-cb01cbef3776" />
          </symbol>
          <symbol
             overflow="visible"
             id="id-f9eb498c-1189-467e-b0a4-bf3078e3247f">
            <path
               style="stroke:none;stroke-width:0"
               d="m 4.578125,-3.1875 c 0,-0.796875 -0.046875,-1.59375 -0.390625,-2.328125 -0.453125,-0.96875 -1.28125,-1.125 -1.6875,-1.125 -0.609375,0 -1.328125,0.265625 -1.75,1.1875 -0.3125,0.6875 -0.359375,1.46875 -0.359375,2.265625 0,0.75 0.03125,1.640625 0.453125,2.40625 0.421875,0.796875 1.15625,1 1.640625,1 0.53125,0 1.296875,-0.203125 1.734375,-1.15625 0.3125,-0.6875 0.359375,-1.46875 0.359375,-2.25 z M 2.484375,0 C 2.09375,0 1.5,-0.25 1.328125,-1.203125 1.21875,-1.796875 1.21875,-2.71875 1.21875,-3.3125 c 0,-0.640625 0,-1.296875 0.078125,-1.828125 0.1875,-1.1875 0.9375,-1.28125 1.1875,-1.28125 0.328125,0 0.984375,0.1875 1.171875,1.171875 0.109375,0.5625 0.109375,1.3125 0.109375,1.9375 0,0.75 0,1.421875 -0.109375,2.0625 C 3.5,-0.296875 2.9375,0 2.484375,0 Z m 0,0"
               id="id-0c817156-6874-4491-b4fc-c1f255a192c8" />
          </symbol>
          <symbol
             overflow="visible"
             id="id-6c422243-24d5-49c6-98e1-d1a823fe94e8">
            <path
               style="stroke:none;stroke-width:0"
               d=""
               id="id-c4386af9-7896-4702-8ed2-22d7c8e5429e" />
          </symbol>
          <symbol
             overflow="visible"
             id="id-a2311a8b-b95f-4d33-ad61-53828a8c7539">
            <path
               style="stroke:none;stroke-width:0"
               d="M 4.609375,-3.375 C 4.65625,-3.59375 4.75,-3.96875 4.75,-4.03125 c 0,-0.171875 -0.140625,-0.265625 -0.28125,-0.265625 -0.125,0 -0.296875,0.078125 -0.375,0.28125 -0.03125,0.0625 -0.5,1.96875 -0.5625,2.234375 C 3.453125,-1.484375 3.4375,-1.3125 3.4375,-1.125 c 0,0.109375 0,0.125 0.015625,0.171875 -0.234375,0.53125 -0.53125,0.84375 -0.921875,0.84375 -0.796875,0 -0.796875,-0.734375 -0.796875,-0.90625 0,-0.3125 0.046875,-0.703125 0.515625,-1.9375 0.109375,-0.296875 0.171875,-0.4375 0.171875,-0.640625 0,-0.4375 -0.328125,-0.8125 -0.8125,-0.8125 -0.953125,0 -1.3125,1.453125 -1.3125,1.53125 0,0.109375 0.09375,0.109375 0.109375,0.109375 0.109375,0 0.109375,-0.03125 0.15625,-0.1875 C 0.84375,-3.875 1.21875,-4.1875 1.578125,-4.1875 c 0.09375,0 0.25,0.015625 0.25,0.328125 0,0.25 -0.109375,0.53125 -0.1875,0.703125 -0.4375,1.171875 -0.546875,1.625 -0.546875,2.015625 0,0.90625 0.65625,1.25 1.40625,1.25 0.171875,0 0.640625,0 1.03125,-0.703125 0.265625,0.640625 0.953125,0.703125 1.25,0.703125 0.75,0 1.1875,-0.625 1.453125,-1.21875 0.328125,-0.78125 0.65625,-2.125 0.65625,-2.59375 0,-0.546875 -0.265625,-0.703125 -0.4375,-0.703125 -0.25,0 -0.5,0.265625 -0.5,0.484375 0,0.125 0.0625,0.1875 0.140625,0.265625 0.109375,0.109375 0.359375,0.359375 0.359375,0.84375 0,0.34375 -0.28125,1.3125 -0.546875,1.828125 -0.25,0.53125 -0.609375,0.875 -1.09375,0.875 -0.46875,0 -0.734375,-0.296875 -0.734375,-0.875 0,-0.265625 0.0625,-0.578125 0.109375,-0.71875 z m 0,0"
               id="id-1ff69596-0037-4d0f-8f55-5e0250148c52" />
          </symbol>
          <symbol
             overflow="visible"
             id="id-df1da44c-626f-4524-99fb-0aea29180ac8">
            <path
               style="stroke:none;stroke-width:0"
               d=""
               id="id-86a6e899-7ff6-4559-bd61-ef85a07cb9e7" />
          </symbol>
          <symbol
             overflow="visible"
             id="id-3eb99388-7094-43e5-a5be-b9c7d086c1ef">
            <path
               style="stroke:none;stroke-width:0"
               d="m 2.328125,-4.4375 c 0,-0.1875 0,-0.1875 -0.203125,-0.1875 -0.453125,0.4375 -1.078125,0.4375 -1.359375,0.4375 v 0.25 c 0.15625,0 0.625,0 1,-0.1875 v 3.546875 c 0,0.234375 0,0.328125 -0.6875,0.328125 H 0.8125 V 0 c 0.125,0 0.984375,-0.03125 1.234375,-0.03125 0.21875,0 1.09375,0.03125 1.25,0.03125 V -0.25 H 3.03125 c -0.703125,0 -0.703125,-0.09375 -0.703125,-0.328125 z m 0,0"
               id="id-b2448122-b4e0-465f-99ee-19061dd17dee" />
          </symbol>
        </g>
      </defs>
      <g
         id="id-380b625e-64b1-441d-b0bf-d3ad0db667ee"
         transform="translate(-148.993,-124.794)" />
    </g>
    <g
       style="fill:#000000;fill-opacity:1"
       id="id-4553eb72-3ad1-48b8-af13-517ba390e8a8"
       transform="matrix(0.39178217,0,0,0.39178217,103.9952,19.102485)" />
    <g
       id="g13"
       transform="translate(0,-2.3876778)">
      <path
         style="display:inline;fill:none;fill-rule:evenodd;stroke:#000000;stroke-width:0.466;stroke-linecap:butt;stroke-linejoin:miter;stroke-dasharray:none;stroke-opacity:1"
         d="m 57.497486,46.344879 v 37.00932"
         id="path3"
         inkscape:connector-type="polyline"
         inkscape:connector-curvature="0" />
      <path
         style="display:inline;fill:none;fill-rule:evenodd;stroke:#000000;stroke-width:0.466;stroke-linecap:butt;stroke-linejoin:miter;stroke-dasharray:none;stroke-opacity:1"
         d="M 68.709969,65.479226 57.659986,83.394824"
         id="path3-3"
         inkscape:connector-type="polyline"
         inkscape:connector-curvature="0" />
      <path
         sodipodi:type="star"
         style="fill:none;stroke:#000000;stroke-width:0.466;stroke-linecap:round;stroke-linejoin:bevel;stroke-miterlimit:2.6;stroke-opacity:1"
         id="path1"
         inkscape:flatsided="true"
         sodipodi:sides="3"
         sodipodi:cx="66.944984"
         sodipodi:cy="39.119205"
         sodipodi:r1="24.989536"
         sodipodi:r2="12.277329"
         sodipodi:arg1="0.5241161"
         sodipodi:arg2="1.5713137"
         inkscape:rounded="0"
         inkscape:randomized="0"
         d="M 88.580091,51.625168 45.29695,51.602776 66.957912,14.129673 Z"
         inkscape:transform-center-x="0.068718943"
         inkscape:transform-center-y="-6.0790562"
         transform="translate(-9.512379,31.760391)" />
      <ellipse
         style="display:inline;fill:#788ed2;fill-opacity:1;stroke:#000000;stroke-width:0.35;stroke-linecap:round;stroke-dasharray:none;stroke-opacity:1"
         id="path1-2-9"
         cx="79.005753"
         cy="83.236717"
         rx="1.1873231"
         ry="1.187323" />
      <ellipse
         style="display:inline;fill:#788ed2;fill-opacity:1;stroke:#000000;stroke-width:0.35;stroke-linecap:round;stroke-dasharray:none;stroke-opacity:1"
         id="path1-2-9-3"
         cx="36.003666"
         cy="83.19783"
         rx="1.1873231"
         ry="1.187323" />
      <ellipse
         style="display:inline;fill:#788ed2;fill-opacity:1;stroke:#000000;stroke-width:0.35;stroke-linecap:round;stroke-dasharray:none;stroke-opacity:1"
         id="path1-2-9-3-6"
         cx="57.484818"
         cy="45.823933"
         rx="1.1873231"
         ry="1.187323" />
      <path
         style="fill:none;stroke:#000000;stroke-width:0.450001;stroke-linecap:round;stroke-linejoin:bevel;stroke-miterlimit:2.6"
         d="M 68.736276,65.47754 57.645668,65.72129"
         id="path4" />
      <path
         style="fill:none;stroke:#000000;stroke-width:0.450001;stroke-linecap:round;stroke-linejoin:bevel;stroke-miterlimit:2.6"
         d="M 57.280043,83.677513 46.026935,66.086915 v -0.1625 l 11.374983,-0.1625"
         id="path5"
         sodipodi:nodetypes="cccc" />
      <path
         style="fill:none;stroke:#000000;stroke-width:0.450001;stroke-linecap:round;stroke-linejoin:bevel;stroke-miterlimit:2.6"
         d="m 57.686292,65.680666 5.565616,-9.546862 v 0"
         id="path11" />
      <ellipse
         style="display:inline;fill:#788ed2;fill-opacity:1;stroke:#000000;stroke-width:0.35;stroke-linecap:round;stroke-dasharray:none;stroke-opacity:1"
         id="path1-2-9-3-6-2-5"
         cx="68.698372"
         cy="65.42495"
         rx="1.1873231"
         ry="1.187323" />
      <ellipse
         style="display:inline;fill:#788ed2;fill-opacity:1;stroke:#000000;stroke-width:0.35;stroke-linecap:round;stroke-dasharray:none;stroke-opacity:1"
         id="path1-2-9-3-6-2-5-3"
         cx="45.836189"
         cy="65.856575"
         rx="1.1873231"
         ry="1.187323" />
      <ellipse
         style="display:inline;fill:#788ed2;fill-opacity:1;stroke:#000000;stroke-width:0.35;stroke-linecap:round;stroke-dasharray:none;stroke-opacity:1"
         id="path1-2-9-3-6-2"
         cx="57.327557"
         cy="83.600914"
         rx="1.1873231"
         ry="1.187323" />
      <ellipse
         style="display:inline;fill:#788ed2;fill-opacity:1;stroke:#000000;stroke-width:0.35;stroke-linecap:round;stroke-dasharray:none;stroke-opacity:1"
         id="path1-2-9-3-6-2-5-1"
         cx="57.48304"
         cy="65.90136"
         rx="1.1873231"
         ry="1.187323" />
      <ellipse
         style="display:inline;fill:#788ed2;fill-opacity:1;stroke:#000000;stroke-width:0.35;stroke-linecap:round;stroke-dasharray:none;stroke-opacity:1"
         id="path1-2-9-3-6-2-5-36"
         cx="63.238228"
         cy="56.1045"
         rx="1.1873231"
         ry="1.187323" />
    </g>
    <path
       style="display:inline;fill:none;fill-rule:evenodd;stroke:#47b93b;stroke-width:0.466;stroke-linecap:butt;stroke-linejoin:miter;stroke-dasharray:none;stroke-opacity:1"
       d="m 111.46224,64.700996 0.0135,16.265526"
       id="path3-1"
       inkscape:connector-type="polyline"
       inkscape:connector-curvature="0"
       inkscape:connection-start="#path1-2-9-3-6-2-5-1-2" />
    <path
       style="display:inline;fill:none;fill-rule:evenodd;stroke:#000000;stroke-width:0.466;stroke-linecap:butt;stroke-linejoin:miter;stroke-dasharray:none;stroke-opacity:1"
       d="M 122.68819,63.091549 111.63821,81.007147"
       id="path3-3-8"
       inkscape:connector-type="polyline"
       inkscape:connector-curvature="0" />
    <path
       style="fill:none;stroke:#a63939;stroke-width:0.450001;stroke-linecap:round;stroke-linejoin:bevel;stroke-miterlimit:2.6;stroke-opacity:1"
       d="m 122.7145,63.089863 -11.09061,0.24375"
       id="path4-2" />
    <path
       style="fill:none;fill-rule:evenodd;stroke:#a63939;stroke-width:0.466;stroke-linecap:butt;stroke-linejoin:miter;stroke-dasharray:none;stroke-opacity:1"
       d="m 111.70511,62.366982 0.002,-17.702778"
       id="path13"
       inkscape:connector-type="polyline"
       inkscape:connector-curvature="0" />
    <ellipse
       style="display:inline;fill:#788ed2;fill-opacity:1;stroke:#000000;stroke-width:0.35;stroke-linecap:round;stroke-dasharray:none;stroke-opacity:1"
       id="path1-2-9-9"
       cx="132.98398"
       cy="80.849037"
       rx="1.1873231"
       ry="1.187323" />
    <path
       style="fill:none;stroke:#47b93b;stroke-width:0.466;stroke-linecap:round;stroke-linejoin:bevel;stroke-miterlimit:2.6;stroke-dasharray:none;stroke-opacity:1"
       d="m 111.29405,43.455712 -0.0812,20.028095"
       id="path15" />
    <path
       style="fill:none;stroke:#46b93c;stroke-width:0.466;stroke-linecap:round;stroke-linejoin:bevel;stroke-miterlimit:2.6;stroke-dasharray:none;stroke-opacity:0.82352942"
       d="M 89.942495,80.915017 111.27059,43.418198"
       id="path16" />
    <path
       style="fill:none;stroke:#47b93b;stroke-width:0.466;stroke-linecap:round;stroke-linejoin:bevel;stroke-miterlimit:2.6;stroke-dasharray:none;stroke-opacity:1"
       d="M 111.31121,81.36189 89.983119,80.955641"
       id="path17" />
    <ellipse
       style="display:inline;fill:#788ed2;fill-opacity:1;stroke:#000000;stroke-width:0.35;stroke-linecap:round;stroke-dasharray:none;stroke-opacity:1"
       id="path1-2-9-3-2"
       cx="89.981888"
       cy="80.81015"
       rx="1.1873231"
       ry="1.187323" />
    <ellipse
       style="display:inline;fill:#788ed2;fill-opacity:1;stroke:#000000;stroke-width:0.35;stroke-linecap:round;stroke-dasharray:none;stroke-opacity:1"
       id="path1-2-9-3-6-0"
       cx="111.46304"
       cy="43.436256"
       rx="1.1873231"
       ry="1.187323" />
    <ellipse
       style="display:inline;fill:#788ed2;fill-opacity:1;stroke:#000000;stroke-width:0.35;stroke-linecap:round;stroke-dasharray:none;stroke-opacity:1"
       id="path1-2-9-3-6-2-5-5"
       cx="122.67659"
       cy="63.03727"
       rx="1.1873231"
       ry="1.187323" />
    <ellipse
       style="display:inline;fill:#788ed2;fill-opacity:1;stroke:#000000;stroke-width:0.35;stroke-linecap:round;stroke-dasharray:none;stroke-opacity:1"
       id="path1-2-9-3-6-2-2"
       cx="111.30578"
       cy="81.213234"
       rx="1.1873231"
       ry="1.187323" />
    <ellipse
       style="display:inline;fill:#788ed2;fill-opacity:1;stroke:#000000;stroke-width:0.35;stroke-linecap:round;stroke-dasharray:none;stroke-opacity:1"
       id="path1-2-9-3-6-2-5-1-2"
       cx="111.46126"
       cy="63.51368"
       rx="1.1873231"
       ry="1.187323" />
  </g>
</svg>
