<?xml version="1.0" encoding="UTF-8" standalone="no"?>
<!-- Created with Inkscape (http://www.inkscape.org/) -->

<svg
   width="128.01747mm"
   height="59.558102mm"
   viewBox="0 0 128.01747 59.558102"
   version="1.1"
   id="svg1"
   inkscape:version="1.4.3 (1:1.4.3+202512261034+0d15f75042)"
   sodipodi:docname="obj_to_weight.svg"
   inkscape:export-filename="obj_to_weight.pdf"
   inkscape:export-xdpi="96"
   inkscape:export-ydpi="96"
   xmlns:inkscape="http://www.inkscape.org/namespaces/inkscape"
   xmlns:sodipodi="http://sodipodi.sourceforge.net/DTD/sodipodi-0.dtd"
   xmlns="http://www.w3.org/2000/svg"
   xmlns:svg="http://www.w3.org/2000/svg"
   xmlns:ns18="http://www.iki.fi/pav/software/textext/">
  <sodipodi:namedview
     id="namedview1"
     pagecolor="#505050"
     bordercolor="#ffffff"
     borderopacity="1"
     inkscape:showpageshadow="0"
     inkscape:pageopacity="0"
     inkscape:pagecheckerboard="1"
     inkscape:deskcolor="#505050"
     inkscape:document-units="mm"
     showgrid="false"
     inkscape:zoom="3.4577235"
     inkscape:cx="326.2262"
     inkscape:cy="164.99295"
     inkscape:window-width="3840"
     inkscape:window-height="2096"
     inkscape:window-x="1080"
     inkscape:window-y="27"
     inkscape:window-maximized="1"
     inkscape:current-layer="layer1" />
  <defs
     id="defs1">
    <marker
       style="overflow:visible"
       id="ArrowWideRounded-7"
       refX="0"
       refY="0"
       orient="auto-start-reverse"
       inkscape:stockid="Wide, rounded arrow"
       markerWidth="1"
       markerHeight="1"
       viewBox="0 0 1 1"
       inkscape:isstock="true"
       inkscape:collect="always"
       preserveAspectRatio="xMidYMid">
      <path
         style="fill:none;stroke:context-stroke;stroke-width:1;stroke-linecap:round"
         d="M 3,-3 0,0 3,3"
         transform="rotate(180,0.125,0)"
         sodipodi:nodetypes="ccc"
         id="path4-5" />
    </marker>
    <marker
       style="overflow:visible"
       id="ArrowWideRounded-7-7"
       refX="0"
       refY="0"
       orient="auto-start-reverse"
       inkscape:stockid="Wide, rounded arrow"
       markerWidth="1"
       markerHeight="1"
       viewBox="0 0 1 1"
       inkscape:isstock="true"
       inkscape:collect="always"
       preserveAspectRatio="xMidYMid">
      <path
         style="fill:none;stroke:context-stroke;stroke-width:1;stroke-linecap:round"
         d="M 3,-3 0,0 3,3"
         transform="rotate(180,0.125,0)"
         sodipodi:nodetypes="ccc"
         id="path4-5-5" />
    </marker>
  </defs>
  <g
     inkscape:label="Layer 1"
     inkscape:groupmode="layer"
     id="layer1"
     transform="translate(-31.822524,-37.894892)">
    <g
       id="g2-6"
       transform="translate(21.097316,7.6261759)">
      <g
         id="g10-5-9-2"
         transform="matrix(1.1098958,0,0,1.1098958,-59.12048,-3.8753588)"
         style="display:inline;stroke-width:0.0900986;stroke-dasharray:none">
        <g
           id="g6-0-6-9"
           transform="matrix(1,0,0,0.89929749,0,8.0232235)"
           style="stroke-width:0.0950093;stroke-dasharray:none">
          <path
             style="display:inline;fill:none;fill-rule:evenodd;stroke:#7f7f7f;stroke-width:0.085774;stroke-linecap:butt;stroke-linejoin:miter;stroke-dasharray:0.085774, 0.514644;stroke-dashoffset:0;stroke-opacity:0.495694"
             d="m 70.425078,34.303122 v 45.3694"
             id="path2-2-0-7-0-6-9-48-3-1"
             inkscape:connector-type="polyline"
             inkscape:connector-curvature="0"
             transform="matrix(1.1102625,0,0,1.105084,-7.2692751,-8.3723022)" />
          <path
             style="display:inline;fill:none;fill-rule:evenodd;stroke:#7f7f7f;stroke-width:0.085774;stroke-linecap:butt;stroke-linejoin:miter;stroke-dasharray:0.085774, 0.514644;stroke-dashoffset:0;stroke-opacity:0.495694"
             d="M 74.931536,34.303122 V 79.672523"
             id="path2-2-0-7-0-6-9-4-71-8-2"
             inkscape:connector-type="polyline"
             inkscape:connector-curvature="0"
             transform="matrix(1.1102625,0,0,1.105084,-7.2692751,-8.3723022)" />
          <path
             style="display:inline;fill:none;fill-rule:evenodd;stroke:#7f7f7f;stroke-width:0.085774;stroke-linecap:butt;stroke-linejoin:miter;stroke-dasharray:0.085774, 0.514644;stroke-dashoffset:0;stroke-opacity:0.495694"
             d="M 79.437994,34.303121 V 79.672522"
             id="path2-2-0-7-0-6-9-4-6-7-5-7"
             inkscape:connector-type="polyline"
             inkscape:connector-curvature="0"
             transform="matrix(1.1102625,0,0,1.105084,-7.2692751,-8.3723022)" />
          <path
             style="display:inline;fill:none;fill-rule:evenodd;stroke:#7f7f7f;stroke-width:0.085774;stroke-linecap:butt;stroke-linejoin:miter;stroke-dasharray:0.085774, 0.514644;stroke-dashoffset:0;stroke-opacity:0.495694"
             d="M 83.944452,34.303122 V 79.672523"
             id="path2-2-0-7-0-6-9-4-3-27-6-0"
             inkscape:connector-type="polyline"
             inkscape:connector-curvature="0"
             transform="matrix(1.1102625,0,0,1.105084,-7.2692751,-8.3723022)" />
          <path
             style="display:inline;fill:none;fill-rule:evenodd;stroke:#7f7f7f;stroke-width:0.085774;stroke-linecap:butt;stroke-linejoin:miter;stroke-dasharray:0.085774, 0.514644;stroke-dashoffset:0;stroke-opacity:0.495694"
             d="M 88.45091,34.303122 V 79.672523"
             id="path2-2-0-7-0-6-9-4-1-2-1-9"
             inkscape:connector-type="polyline"
             inkscape:connector-curvature="0"
             transform="matrix(1.1102625,0,0,1.105084,-7.2692751,-8.3723022)" />
          <path
             style="display:inline;fill:none;fill-rule:evenodd;stroke:#7f7f7f;stroke-width:0.085774;stroke-linecap:butt;stroke-linejoin:miter;stroke-dasharray:0.085774, 0.514644;stroke-dashoffset:0;stroke-opacity:0.495694"
             d="M 92.957368,34.303122 V 79.672523"
             id="path2-2-0-7-0-6-9-4-7-2-1-3"
             inkscape:connector-type="polyline"
             inkscape:connector-curvature="0"
             transform="matrix(1.1102625,0,0,1.105084,-7.2692751,-8.3723022)" />
          <path
             style="display:inline;fill:none;fill-rule:evenodd;stroke:#7f7f7f;stroke-width:0.085774;stroke-linecap:butt;stroke-linejoin:miter;stroke-dasharray:0.085774, 0.514644;stroke-dashoffset:0;stroke-opacity:0.495694"
             d="M 97.463826,34.303121 V 79.672522"
             id="path2-2-0-7-0-6-9-4-9-6-59-6"
             inkscape:connector-type="polyline"
             inkscape:connector-curvature="0"
             transform="matrix(1.1102625,0,0,1.105084,-7.2692751,-8.3723022)" />
          <path
             style="display:inline;fill:none;fill-rule:evenodd;stroke:#7f7f7f;stroke-width:0.085774;stroke-linecap:butt;stroke-linejoin:miter;stroke-dasharray:0.085774, 0.514644;stroke-dashoffset:0;stroke-opacity:0.495694"
             d="M 101.97028,34.303121 V 79.672522"
             id="path2-2-0-7-0-6-9-4-5-1-8-0"
             inkscape:connector-type="polyline"
             inkscape:connector-curvature="0"
             transform="matrix(1.1102625,0,0,1.105084,-7.2692751,-8.3723022)" />
          <path
             style="display:inline;fill:none;fill-rule:evenodd;stroke:#7f7f7f;stroke-width:0.085774;stroke-linecap:butt;stroke-linejoin:miter;stroke-dasharray:0.085774, 0.514644;stroke-dashoffset:0;stroke-opacity:0.495694"
             d="M 106.47674,34.303122 V 79.672523"
             id="path2-2-0-7-0-6-9-4-74-0-4-6"
             inkscape:connector-type="polyline"
             inkscape:connector-curvature="0"
             transform="matrix(1.1102625,0,0,1.105084,-7.2692751,-8.3723022)" />
        </g>
        <g
           id="g7-6-8-2"
           transform="matrix(0.99930887,0,0,1,0.04556414,0)"
           style="stroke-width:0.0901297;stroke-dasharray:none">
          <path
             style="display:inline;fill:none;fill-rule:evenodd;stroke:#7f7f7f;stroke-width:0.0901297;stroke-linecap:butt;stroke-linejoin:miter;stroke-dasharray:0.0901297, 0.540778;stroke-dashoffset:0;stroke-opacity:0.495694"
             d="M 111.03326,34.636683 H 65.927033"
             id="path2-2-0-7-0-6-9-4-14-1-1-6"
             inkscape:connector-type="polyline"
             inkscape:connector-curvature="0" />
          <path
             style="display:inline;fill:none;fill-rule:evenodd;stroke:#7f7f7f;stroke-width:0.0901297;stroke-linecap:butt;stroke-linejoin:miter;stroke-dasharray:0.0901297, 0.540778;stroke-dashoffset:0;stroke-opacity:0.495694"
             d="M 111.03326,39.640035 H 65.927034"
             id="path2-2-0-7-0-6-9-4-6-9-5-0-1"
             inkscape:connector-type="polyline"
             inkscape:connector-curvature="0" />
          <path
             style="display:inline;fill:none;fill-rule:evenodd;stroke:#7f7f7f;stroke-width:0.0901297;stroke-linecap:butt;stroke-linejoin:miter;stroke-dasharray:0.0901297, 0.540778;stroke-dashoffset:0;stroke-opacity:0.495694"
             d="M 111.03326,44.643386 H 65.927033"
             id="path2-2-0-7-0-6-9-4-3-2-9-3-8"
             inkscape:connector-type="polyline"
             inkscape:connector-curvature="0" />
          <path
             style="display:inline;fill:none;fill-rule:evenodd;stroke:#7f7f7f;stroke-width:0.0901297;stroke-linecap:butt;stroke-linejoin:miter;stroke-dasharray:0.0901297, 0.540778;stroke-dashoffset:0;stroke-opacity:0.495694"
             d="M 111.03326,49.646737 H 65.927033"
             id="path2-2-0-7-0-6-9-4-1-0-4-0-7"
             inkscape:connector-type="polyline"
             inkscape:connector-curvature="0" />
          <path
             style="display:inline;fill:none;fill-rule:evenodd;stroke:#7f7f7f;stroke-width:0.0901297;stroke-linecap:butt;stroke-linejoin:miter;stroke-dasharray:0.0901297, 0.540778;stroke-dashoffset:0;stroke-opacity:0.495694"
             d="M 111.03326,54.650089 H 65.927033"
             id="path2-2-0-7-0-6-9-4-7-6-9-4-9"
             inkscape:connector-type="polyline"
             inkscape:connector-curvature="0" />
          <path
             style="display:inline;fill:none;fill-rule:evenodd;stroke:#7f7f7f;stroke-width:0.0901297;stroke-linecap:butt;stroke-linejoin:miter;stroke-dasharray:0.0901297, 0.540778;stroke-dashoffset:0;stroke-opacity:0.495694"
             d="M 111.03326,59.65344 H 65.927034"
             id="path2-2-0-7-0-6-9-4-9-8-0-4-2"
             inkscape:connector-type="polyline"
             inkscape:connector-curvature="0" />
          <path
             style="display:inline;fill:none;fill-rule:evenodd;stroke:#7f7f7f;stroke-width:0.0901297;stroke-linecap:butt;stroke-linejoin:miter;stroke-dasharray:0.0901297, 0.540778;stroke-dashoffset:0;stroke-opacity:0.495694"
             d="M 111.03326,64.656787 H 65.927034"
             id="path2-2-0-7-0-6-9-4-5-9-9-4-0"
             inkscape:connector-type="polyline"
             inkscape:connector-curvature="0" />
          <path
             style="display:inline;fill:none;fill-rule:evenodd;stroke:#7f7f7f;stroke-width:0.0901297;stroke-linecap:butt;stroke-linejoin:miter;stroke-dasharray:0.0901297, 0.540778;stroke-dashoffset:0;stroke-opacity:0.495694"
             d="M 111.03326,69.660141 H 65.927033"
             id="path2-2-0-7-0-6-9-4-74-2-1-4-2"
             inkscape:connector-type="polyline"
             inkscape:connector-curvature="0" />
          <path
             style="display:inline;fill:none;fill-rule:evenodd;stroke:#7f7f7f;stroke-width:0.0901297;stroke-linecap:butt;stroke-linejoin:miter;stroke-dasharray:0.0901297, 0.540778;stroke-dashoffset:0;stroke-opacity:0.495694"
             d="M 111.04869,74.663494 H 65.942461"
             id="path2-2-0-7-0-6-9-4-78-6-7-7-3"
             inkscape:connector-type="polyline"
             inkscape:connector-curvature="0" />
        </g>
      </g>
      <g
         id="g4-7"
         transform="matrix(1.1098958,0,0,1.1098958,-59.118699,-3.8570739)"
         style="display:inline;stroke-width:0.75;stroke-dasharray:none">
        <path
           style="display:inline;fill:none;fill-rule:evenodd;stroke:#000000;stroke-width:0.751282;stroke-linecap:butt;stroke-linejoin:miter;stroke-dasharray:none;stroke-opacity:1;marker-end:url(#ArrowWideRounded-7)"
           d="M 65.179309,80.032308 H 114.11991"
           id="path2-5"
           inkscape:connector-type="polyline"
           inkscape:connector-curvature="0" />
        <path
           style="display:inline;fill:none;fill-rule:evenodd;stroke:#000000;stroke-width:0.75;stroke-linecap:butt;stroke-linejoin:miter;stroke-dasharray:none;stroke-opacity:1;marker-start:url(#ArrowWideRounded-7)"
           d="M 65.553346,31.464671 V 80.238412"
           id="path2-2-9"
           inkscape:connector-type="polyline"
           inkscape:connector-curvature="0" />
      </g>
    </g>
    <g
       id="g2-6-2"
       transform="translate(88.129091,7.6261759)">
      <g
         id="g10-5-9-2-9"
         transform="matrix(1.1098958,0,0,1.1098958,-59.12048,-3.8753588)"
         style="display:inline;stroke-width:0.0900986;stroke-dasharray:none">
        <g
           id="g6-0-6-9-1"
           transform="matrix(1,0,0,0.89929749,0,8.0232235)"
           style="stroke-width:0.0950093;stroke-dasharray:none">
          <path
             style="display:inline;fill:none;fill-rule:evenodd;stroke:#7f7f7f;stroke-width:0.085774;stroke-linecap:butt;stroke-linejoin:miter;stroke-dasharray:0.085774, 0.514644;stroke-dashoffset:0;stroke-opacity:0.495694"
             d="m 70.425078,34.303122 v 45.3694"
             id="path2-2-0-7-0-6-9-48-3-1-2"
             inkscape:connector-type="polyline"
             inkscape:connector-curvature="0"
             transform="matrix(1.1102625,0,0,1.105084,-7.2692751,-8.3723022)" />
          <path
             style="display:inline;fill:none;fill-rule:evenodd;stroke:#7f7f7f;stroke-width:0.085774;stroke-linecap:butt;stroke-linejoin:miter;stroke-dasharray:0.085774, 0.514644;stroke-dashoffset:0;stroke-opacity:0.495694"
             d="M 74.931536,34.303122 V 79.672523"
             id="path2-2-0-7-0-6-9-4-71-8-2-7"
             inkscape:connector-type="polyline"
             inkscape:connector-curvature="0"
             transform="matrix(1.1102625,0,0,1.105084,-7.2692751,-8.3723022)" />
          <path
             style="display:inline;fill:none;fill-rule:evenodd;stroke:#7f7f7f;stroke-width:0.085774;stroke-linecap:butt;stroke-linejoin:miter;stroke-dasharray:0.085774, 0.514644;stroke-dashoffset:0;stroke-opacity:0.495694"
             d="M 79.437994,34.303121 V 79.672522"
             id="path2-2-0-7-0-6-9-4-6-7-5-7-0"
             inkscape:connector-type="polyline"
             inkscape:connector-curvature="0"
             transform="matrix(1.1102625,0,0,1.105084,-7.2692751,-8.3723022)" />
          <path
             style="display:inline;fill:none;fill-rule:evenodd;stroke:#7f7f7f;stroke-width:0.085774;stroke-linecap:butt;stroke-linejoin:miter;stroke-dasharray:0.085774, 0.514644;stroke-dashoffset:0;stroke-opacity:0.495694"
             d="M 83.944452,34.303122 V 79.672523"
             id="path2-2-0-7-0-6-9-4-3-27-6-0-9"
             inkscape:connector-type="polyline"
             inkscape:connector-curvature="0"
             transform="matrix(1.1102625,0,0,1.105084,-7.2692751,-8.3723022)" />
          <path
             style="display:inline;fill:none;fill-rule:evenodd;stroke:#7f7f7f;stroke-width:0.085774;stroke-linecap:butt;stroke-linejoin:miter;stroke-dasharray:0.085774, 0.514644;stroke-dashoffset:0;stroke-opacity:0.495694"
             d="M 88.45091,34.303122 V 79.672523"
             id="path2-2-0-7-0-6-9-4-1-2-1-9-3"
             inkscape:connector-type="polyline"
             inkscape:connector-curvature="0"
             transform="matrix(1.1102625,0,0,1.105084,-7.2692751,-8.3723022)" />
          <path
             style="display:inline;fill:none;fill-rule:evenodd;stroke:#7f7f7f;stroke-width:0.085774;stroke-linecap:butt;stroke-linejoin:miter;stroke-dasharray:0.085774, 0.514644;stroke-dashoffset:0;stroke-opacity:0.495694"
             d="M 92.957368,34.303122 V 79.672523"
             id="path2-2-0-7-0-6-9-4-7-2-1-3-6"
             inkscape:connector-type="polyline"
             inkscape:connector-curvature="0"
             transform="matrix(1.1102625,0,0,1.105084,-7.2692751,-8.3723022)" />
          <path
             style="display:inline;fill:none;fill-rule:evenodd;stroke:#7f7f7f;stroke-width:0.085774;stroke-linecap:butt;stroke-linejoin:miter;stroke-dasharray:0.085774, 0.514644;stroke-dashoffset:0;stroke-opacity:0.495694"
             d="M 97.463826,34.303121 V 79.672522"
             id="path2-2-0-7-0-6-9-4-9-6-59-6-0"
             inkscape:connector-type="polyline"
             inkscape:connector-curvature="0"
             transform="matrix(1.1102625,0,0,1.105084,-7.2692751,-8.3723022)" />
          <path
             style="display:inline;fill:none;fill-rule:evenodd;stroke:#7f7f7f;stroke-width:0.085774;stroke-linecap:butt;stroke-linejoin:miter;stroke-dasharray:0.085774, 0.514644;stroke-dashoffset:0;stroke-opacity:0.495694"
             d="M 101.97028,34.303121 V 79.672522"
             id="path2-2-0-7-0-6-9-4-5-1-8-0-6"
             inkscape:connector-type="polyline"
             inkscape:connector-curvature="0"
             transform="matrix(1.1102625,0,0,1.105084,-7.2692751,-8.3723022)" />
          <path
             style="display:inline;fill:none;fill-rule:evenodd;stroke:#7f7f7f;stroke-width:0.085774;stroke-linecap:butt;stroke-linejoin:miter;stroke-dasharray:0.085774, 0.514644;stroke-dashoffset:0;stroke-opacity:0.495694"
             d="M 106.47674,34.303122 V 79.672523"
             id="path2-2-0-7-0-6-9-4-74-0-4-6-2"
             inkscape:connector-type="polyline"
             inkscape:connector-curvature="0"
             transform="matrix(1.1102625,0,0,1.105084,-7.2692751,-8.3723022)" />
        </g>
        <g
           id="g7-6-8-2-6"
           transform="matrix(0.99930887,0,0,1,0.04556414,0)"
           style="stroke-width:0.0901297;stroke-dasharray:none">
          <path
             style="display:inline;fill:none;fill-rule:evenodd;stroke:#7f7f7f;stroke-width:0.0901297;stroke-linecap:butt;stroke-linejoin:miter;stroke-dasharray:0.0901297, 0.540778;stroke-dashoffset:0;stroke-opacity:0.495694"
             d="M 111.03326,34.636683 H 65.927033"
             id="path2-2-0-7-0-6-9-4-14-1-1-6-1"
             inkscape:connector-type="polyline"
             inkscape:connector-curvature="0" />
          <path
             style="display:inline;fill:none;fill-rule:evenodd;stroke:#7f7f7f;stroke-width:0.0901297;stroke-linecap:butt;stroke-linejoin:miter;stroke-dasharray:0.0901297, 0.540778;stroke-dashoffset:0;stroke-opacity:0.495694"
             d="M 111.03326,39.640035 H 65.927034"
             id="path2-2-0-7-0-6-9-4-6-9-5-0-1-8"
             inkscape:connector-type="polyline"
             inkscape:connector-curvature="0" />
          <path
             style="display:inline;fill:none;fill-rule:evenodd;stroke:#7f7f7f;stroke-width:0.0901297;stroke-linecap:butt;stroke-linejoin:miter;stroke-dasharray:0.0901297, 0.540778;stroke-dashoffset:0;stroke-opacity:0.495694"
             d="M 111.03326,44.643386 H 65.927033"
             id="path2-2-0-7-0-6-9-4-3-2-9-3-8-7"
             inkscape:connector-type="polyline"
             inkscape:connector-curvature="0" />
          <path
             style="display:inline;fill:none;fill-rule:evenodd;stroke:#7f7f7f;stroke-width:0.0901297;stroke-linecap:butt;stroke-linejoin:miter;stroke-dasharray:0.0901297, 0.540778;stroke-dashoffset:0;stroke-opacity:0.495694"
             d="M 111.03326,49.646737 H 65.927033"
             id="path2-2-0-7-0-6-9-4-1-0-4-0-7-9"
             inkscape:connector-type="polyline"
             inkscape:connector-curvature="0" />
          <path
             style="display:inline;fill:none;fill-rule:evenodd;stroke:#7f7f7f;stroke-width:0.0901297;stroke-linecap:butt;stroke-linejoin:miter;stroke-dasharray:0.0901297, 0.540778;stroke-dashoffset:0;stroke-opacity:0.495694"
             d="M 111.03326,54.650089 H 65.927033"
             id="path2-2-0-7-0-6-9-4-7-6-9-4-9-2"
             inkscape:connector-type="polyline"
             inkscape:connector-curvature="0" />
          <path
             style="display:inline;fill:none;fill-rule:evenodd;stroke:#7f7f7f;stroke-width:0.0901297;stroke-linecap:butt;stroke-linejoin:miter;stroke-dasharray:0.0901297, 0.540778;stroke-dashoffset:0;stroke-opacity:0.495694"
             d="M 111.03326,59.65344 H 65.927034"
             id="path2-2-0-7-0-6-9-4-9-8-0-4-2-0"
             inkscape:connector-type="polyline"
             inkscape:connector-curvature="0" />
          <path
             style="display:inline;fill:none;fill-rule:evenodd;stroke:#7f7f7f;stroke-width:0.0901297;stroke-linecap:butt;stroke-linejoin:miter;stroke-dasharray:0.0901297, 0.540778;stroke-dashoffset:0;stroke-opacity:0.495694"
             d="M 111.03326,64.656787 H 65.927034"
             id="path2-2-0-7-0-6-9-4-5-9-9-4-0-2"
             inkscape:connector-type="polyline"
             inkscape:connector-curvature="0" />
          <path
             style="display:inline;fill:none;fill-rule:evenodd;stroke:#7f7f7f;stroke-width:0.0901297;stroke-linecap:butt;stroke-linejoin:miter;stroke-dasharray:0.0901297, 0.540778;stroke-dashoffset:0;stroke-opacity:0.495694"
             d="M 111.03326,69.660141 H 65.927033"
             id="path2-2-0-7-0-6-9-4-74-2-1-4-2-3"
             inkscape:connector-type="polyline"
             inkscape:connector-curvature="0" />
          <path
             style="display:inline;fill:none;fill-rule:evenodd;stroke:#7f7f7f;stroke-width:0.0901297;stroke-linecap:butt;stroke-linejoin:miter;stroke-dasharray:0.0901297, 0.540778;stroke-dashoffset:0;stroke-opacity:0.495694"
             d="M 111.04869,74.663494 H 65.942461"
             id="path2-2-0-7-0-6-9-4-78-6-7-7-3-7"
             inkscape:connector-type="polyline"
             inkscape:connector-curvature="0" />
        </g>
      </g>
      <g
         id="g4-7-5"
         transform="matrix(1.1098958,0,0,1.1098958,-59.118699,-3.8570739)"
         style="display:inline;stroke-width:0.75;stroke-dasharray:none">
        <path
           style="display:inline;fill:none;fill-rule:evenodd;stroke:#000000;stroke-width:0.751282;stroke-linecap:butt;stroke-linejoin:miter;stroke-dasharray:none;stroke-opacity:1;marker-end:url(#ArrowWideRounded-7-7)"
           d="M 65.179309,80.032308 H 114.11991"
           id="path2-5-9"
           inkscape:connector-type="polyline"
           inkscape:connector-curvature="0" />
        <path
           style="display:inline;fill:none;fill-rule:evenodd;stroke:#000000;stroke-width:0.75;stroke-linecap:butt;stroke-linejoin:miter;stroke-dasharray:none;stroke-opacity:1;marker-start:url(#ArrowWideRounded-7-7)"
           d="M 65.553346,31.464671 V 80.238412"
           id="path2-2-9-2"
           inkscape:connector-type="polyline"
           inkscape:connector-curvature="0" />
      </g>
    </g>
    <path
       style="display:inline;fill:none;fill-rule:evenodd;stroke:#788ed2;stroke-width:0.451;stroke-linecap:butt;stroke-linejoin:miter;stroke-dasharray:none;stroke-dashoffset:0;stroke-opacity:1"
       d="M 102.27233,47.870359 146.58468,81.08242"
       id="path5-3-6"
       inkscape:connector-type="polyline"
       inkscape:connector-curvature="0"
       inkscape:transform-center-x="0.0017350623"
       inkscape:transform-center-y="3.8710565" />
    <path
       style="display:inline;fill:none;fill-rule:evenodd;stroke:#7bd278;stroke-width:0.451;stroke-linecap:butt;stroke-linejoin:miter;stroke-dasharray:none;stroke-dashoffset:0;stroke-opacity:1"
       d="M 146.61428,47.811157 102.21313,81.171222"
       id="path5-3-6-3"
       inkscape:connector-type="polyline"
       inkscape:connector-curvature="0"
       inkscape:transform-center-x="0.0017350623"
       inkscape:transform-center-y="3.8710565" />
    <path
       style="display:inline;fill:none;fill-rule:evenodd;stroke:#d27878;stroke-width:0.451;stroke-linecap:butt;stroke-linejoin:miter;stroke-dasharray:none;stroke-dashoffset:0;stroke-opacity:1"
       d="m 146.58468,58.881844 -44.34195,0.0592"
       id="path5-3-6-3-3"
       inkscape:connector-type="polyline"
       inkscape:connector-curvature="0"
       inkscape:transform-center-x="0.0017350623"
       inkscape:transform-center-y="3.8710565" />
    <ellipse
       style="display:inline;fill:#788ed2;fill-opacity:1;stroke:#000000;stroke-width:0.35;stroke-linecap:round;stroke-dasharray:none;stroke-opacity:1"
       id="path1-2-9"
       cx="79.598999"
       cy="81.27755"
       rx="1.1873231"
       ry="1.187323" />
    <ellipse
       style="display:inline;fill:#7bd278;fill-opacity:1;stroke:#000000;stroke-width:0.35;stroke-linecap:round;stroke-dasharray:none;stroke-opacity:1"
       id="path1-2-9-1"
       cx="46.203865"
       cy="47.884178"
       rx="1.1873231"
       ry="1.187323" />
    <ellipse
       style="display:inline;fill:#d27878;fill-opacity:1;stroke:#000000;stroke-width:0.35;stroke-linecap:round;stroke-dasharray:none;stroke-opacity:1"
       id="path1-2-9-4"
       cx="68.481873"
       cy="58.919659"
       rx="1.1873231"
       ry="1.187323" />
    <path
       style="fill:none;fill-rule:evenodd;stroke:#000000;stroke-width:0.264583px;stroke-linecap:butt;stroke-linejoin:miter;stroke-opacity:1"
       d="M 61.992667,62.244566 H 62.13043"
       id="path1"
       inkscape:connector-type="polyline"
       inkscape:connector-curvature="0" />
    <path
       style="fill:none;fill-rule:evenodd;stroke:#000000;stroke-width:0.466;stroke-linecap:butt;stroke-linejoin:miter;stroke-dasharray:none;stroke-opacity:1"
       d="M 131.76754,58.704124 H 117.18589"
       id="path2"
       inkscape:connector-type="polyline"
       inkscape:connector-curvature="0" />
    <path
       style="display:inline;fill:none;fill-rule:evenodd;stroke:#000000;stroke-width:0.466;stroke-linecap:butt;stroke-linejoin:miter;stroke-dasharray:none;stroke-opacity:1"
       d="m 102.38305,47.490849 14.97452,11.194542"
       id="path3"
       inkscape:connector-type="polyline"
       inkscape:connector-curvature="0" />
    <path
       style="display:inline;fill:none;fill-rule:evenodd;stroke:#000000;stroke-width:0.466;stroke-linecap:butt;stroke-linejoin:miter;stroke-dasharray:none;stroke-opacity:1"
       d="M 131.57757,58.706338 146.40026,47.543615"
       id="path4"
       inkscape:connector-type="polyline"
       inkscape:connector-curvature="0" />
    <g
       transform="matrix(0.39178217,0,0,0.39178217,162.368,67.994549)"
       ns18:version="1.10.2"
       ns18:texconverter="pdflatex"
       ns18:pdfconverter="inkscape"
       ns18:text="$\\begin{pmatrix} 4 \\\\ 1 \\end{pmatrix}$\n\n$\\begin{pmatrix} 3 \\\\ 3 \\end{pmatrix}$\n\n$\\begin{pmatrix} 1 \\\\ 4 \\end{pmatrix}$\n\n4\n\n3\n\n1\n\n0\n\n$w_1$"
       ns18:preamble="/home/michael/.config/inkscape/extensions/textext/default_packages.tex"
       ns18:scale="1.6"
       ns18:alignment="middle center"
       ns18:stroke-to-path="0"
       ns18:inkscapeversion="1.4.3"
       ns18:jacobian_sqrt="0.564445"
       id="g22">
      <defs
         id="id-a18d6859-fbe0-4e92-8b36-bef6939d5791">
        <g
           id="id-2efa7773-3999-4c48-88d1-84d942956e9e">
          <symbol
             overflow="visible"
             id="id-aaa9fc38-91f4-4b50-a3a3-725f788cfa58">
            <path
               style="stroke:none;stroke-width:0"
               d=""
               id="id-c17695e0-1cd3-4420-a782-a0d73ec21ad0" />
          </symbol>
          <symbol
             overflow="visible"
             id="id-869389dc-e018-4d80-9ded-cbefe5f3e811">
            <path
               style="stroke:none;stroke-width:0"
               d="m 6.984375,23.421875 c 0,-0.04687 -0.03125,-0.0625 -0.046875,-0.09375 -0.375,-0.375 -1.03125,-1.03125 -1.703125,-2.109375 C 3.625,18.640625 2.90625,15.40625 2.90625,11.5625 c 0,-2.6875 0.359375,-6.140625 2,-9.109375 C 5.6875,1.03125 6.515625,0.21875 6.953125,-0.21875 c 0.03125,-0.03125 0.03125,-0.046875 0.03125,-0.078125 0,-0.109375 -0.078125,-0.109375 -0.21875,-0.109375 -0.140625,0 -0.15625,0 -0.3125,0.15625 -3.328125,3.046875 -4.375,7.609375 -4.375,11.796875 0,3.921875 0.890625,7.875 3.421875,10.859375 0.203125,0.21875 0.578125,0.625 0.984375,0.984375 0.125,0.125 0.140625,0.125 0.28125,0.125 0.140625,0 0.21875,0 0.21875,-0.09375 z m 0,0"
               id="id-36adfd63-06e7-491c-b9b3-0cb52e3eca58" />
          </symbol>
          <symbol
             overflow="visible"
             id="id-a07b290d-e73c-459f-8c24-1ac772363302">
            <path
               style="stroke:none;stroke-width:0"
               d="M 5.25,11.5625 C 5.25,7.640625 4.359375,3.703125 1.828125,0.71875 1.625,0.484375 1.25,0.078125 0.84375,-0.28125 c -0.125,-0.125 -0.140625,-0.125 -0.28125,-0.125 -0.125,0 -0.21875,0 -0.21875,0.109375 0,0.03125 0.046875,0.078125 0.0625,0.09375 0.34375,0.359375 1.015625,1.03125 1.6875,2.109375 1.609375,2.5625 2.328125,5.8125 2.328125,9.640625 0,2.6875 -0.359375,6.140625 -2,9.125 -0.78125,1.40625 -1.609375,2.234375 -2.03125,2.65625 -0.015625,0.03125 -0.046875,0.0625 -0.046875,0.09375 0,0.09375 0.09375,0.09375 0.21875,0.09375 0.140625,0 0.15625,0 0.3125,-0.15625 C 4.203125,20.328125 5.25,15.765625 5.25,11.5625 Z m 0,0"
               id="id-20328da8-8661-4895-bd73-731a6850ec47" />
          </symbol>
          <symbol
             overflow="visible"
             id="id-08efb1aa-2bfe-49e8-bba1-104ec4683e24">
            <path
               style="stroke:none;stroke-width:0"
               d=""
               id="id-c6e859d5-835a-4851-ba4b-2d843a2a3cd8" />
          </symbol>
          <symbol
             overflow="visible"
             id="id-1d8b3742-e332-4401-8e25-5ebd8337e81c">
            <path
               style="stroke:none;stroke-width:0"
               d="m 2.9375,-1.640625 v 0.859375 c 0,0.359375 -0.03125,0.46875 -0.765625,0.46875 H 1.96875 V 0 C 2.375,-0.03125 2.890625,-0.03125 3.3125,-0.03125 c 0.421875,0 0.9375,0 1.359375,0.03125 v -0.3125 h -0.21875 c -0.734375,0 -0.75,-0.109375 -0.75,-0.46875 V -1.640625 H 4.6875 v -0.3125 H 3.703125 v -4.53125 c 0,-0.203125 0,-0.265625 -0.171875,-0.265625 -0.078125,0 -0.109375,0 -0.1875,0.125 l -3.0625,4.671875 v 0.3125 z m 0.046875,-0.3125 H 0.5625 l 2.421875,-3.71875 z m 0,0"
               id="id-1dea63a9-68af-432a-b61a-1ce340055c45" />
          </symbol>
          <symbol
             overflow="visible"
             id="id-2cf41ae7-59b1-4e14-acc9-bc70d44961ca">
            <path
               style="stroke:none;stroke-width:0"
               d="m 2.9375,-6.375 c 0,-0.25 0,-0.265625 -0.234375,-0.265625 C 2.078125,-6 1.203125,-6 0.890625,-6 v 0.3125 c 0.203125,0 0.78125,0 1.296875,-0.265625 v 5.171875 c 0,0.359375 -0.03125,0.46875 -0.921875,0.46875 h -0.3125 V 0 c 0.34375,-0.03125 1.203125,-0.03125 1.609375,-0.03125 0.390625,0 1.265625,0 1.609375,0.03125 v -0.3125 h -0.3125 c -0.90625,0 -0.921875,-0.109375 -0.921875,-0.46875 z m 0,0"
               id="id-aea1e4f7-ec81-488b-a13e-67539b7aa042" />
          </symbol>
          <symbol
             overflow="visible"
             id="id-39bfc0f8-d2bb-4566-bedc-62b5a576b518">
            <path
               style="stroke:none;stroke-width:0"
               d="m 2.890625,-3.515625 c 0.8125,-0.265625 1.390625,-0.953125 1.390625,-1.75 0,-0.8125 -0.875,-1.375 -1.828125,-1.375 -1,0 -1.765625,0.59375 -1.765625,1.359375 0,0.328125 0.21875,0.515625 0.515625,0.515625 0.296875,0 0.5,-0.21875 0.5,-0.515625 0,-0.484375 -0.46875,-0.484375 -0.609375,-0.484375 0.296875,-0.5 0.953125,-0.625 1.3125,-0.625 0.421875,0 0.96875,0.21875 0.96875,1.109375 0,0.125 -0.03125,0.703125 -0.28125,1.140625 C 2.796875,-3.65625 2.453125,-3.625 2.203125,-3.625 2.125,-3.609375 1.890625,-3.59375 1.8125,-3.59375 c -0.078125,0.015625 -0.140625,0.03125 -0.140625,0.125 0,0.109375 0.0625,0.109375 0.234375,0.109375 h 0.4375 c 0.8125,0 1.1875,0.671875 1.1875,1.65625 0,1.359375 -0.6875,1.640625 -1.125,1.640625 -0.4375,0 -1.1875,-0.171875 -1.53125,-0.75 0.34375,0.046875 0.65625,-0.171875 0.65625,-0.546875 0,-0.359375 -0.265625,-0.5625 -0.546875,-0.5625 -0.25,0 -0.5625,0.140625 -0.5625,0.578125 0,0.90625 0.921875,1.5625 2.015625,1.5625 1.21875,0 2.125,-0.90625 2.125,-1.921875 0,-0.8125 -0.640625,-1.59375 -1.671875,-1.8125 z m 0,0"
               id="id-bc986b4f-bb2c-4e1a-ada3-cb01cbef3776" />
          </symbol>
          <symbol
             overflow="visible"
             id="id-f9eb498c-1189-467e-b0a4-bf3078e3247f">
            <path
               style="stroke:none;stroke-width:0"
               d="m 4.578125,-3.1875 c 0,-0.796875 -0.046875,-1.59375 -0.390625,-2.328125 -0.453125,-0.96875 -1.28125,-1.125 -1.6875,-1.125 -0.609375,0 -1.328125,0.265625 -1.75,1.1875 -0.3125,0.6875 -0.359375,1.46875 -0.359375,2.265625 0,0.75 0.03125,1.640625 0.453125,2.40625 0.421875,0.796875 1.15625,1 1.640625,1 0.53125,0 1.296875,-0.203125 1.734375,-1.15625 0.3125,-0.6875 0.359375,-1.46875 0.359375,-2.25 z M 2.484375,0 C 2.09375,0 1.5,-0.25 1.328125,-1.203125 1.21875,-1.796875 1.21875,-2.71875 1.21875,-3.3125 c 0,-0.640625 0,-1.296875 0.078125,-1.828125 0.1875,-1.1875 0.9375,-1.28125 1.1875,-1.28125 0.328125,0 0.984375,0.1875 1.171875,1.171875 0.109375,0.5625 0.109375,1.3125 0.109375,1.9375 0,0.75 0,1.421875 -0.109375,2.0625 C 3.5,-0.296875 2.9375,0 2.484375,0 Z m 0,0"
               id="id-0c817156-6874-4491-b4fc-c1f255a192c8" />
          </symbol>
          <symbol
             overflow="visible"
             id="id-6c422243-24d5-49c6-98e1-d1a823fe94e8">
            <path
               style="stroke:none;stroke-width:0"
               d=""
               id="id-c4386af9-7896-4702-8ed2-22d7c8e5429e" />
          </symbol>
          <symbol
             overflow="visible"
             id="id-a2311a8b-b95f-4d33-ad61-53828a8c7539">
            <path
               style="stroke:none;stroke-width:0"
               d="M 4.609375,-3.375 C 4.65625,-3.59375 4.75,-3.96875 4.75,-4.03125 c 0,-0.171875 -0.140625,-0.265625 -0.28125,-0.265625 -0.125,0 -0.296875,0.078125 -0.375,0.28125 -0.03125,0.0625 -0.5,1.96875 -0.5625,2.234375 C 3.453125,-1.484375 3.4375,-1.3125 3.4375,-1.125 c 0,0.109375 0,0.125 0.015625,0.171875 -0.234375,0.53125 -0.53125,0.84375 -0.921875,0.84375 -0.796875,0 -0.796875,-0.734375 -0.796875,-0.90625 0,-0.3125 0.046875,-0.703125 0.515625,-1.9375 0.109375,-0.296875 0.171875,-0.4375 0.171875,-0.640625 0,-0.4375 -0.328125,-0.8125 -0.8125,-0.8125 -0.953125,0 -1.3125,1.453125 -1.3125,1.53125 0,0.109375 0.09375,0.109375 0.109375,0.109375 0.109375,0 0.109375,-0.03125 0.15625,-0.1875 C 0.84375,-3.875 1.21875,-4.1875 1.578125,-4.1875 c 0.09375,0 0.25,0.015625 0.25,0.328125 0,0.25 -0.109375,0.53125 -0.1875,0.703125 -0.4375,1.171875 -0.546875,1.625 -0.546875,2.015625 0,0.90625 0.65625,1.25 1.40625,1.25 0.171875,0 0.640625,0 1.03125,-0.703125 0.265625,0.640625 0.953125,0.703125 1.25,0.703125 0.75,0 1.1875,-0.625 1.453125,-1.21875 0.328125,-0.78125 0.65625,-2.125 0.65625,-2.59375 0,-0.546875 -0.265625,-0.703125 -0.4375,-0.703125 -0.25,0 -0.5,0.265625 -0.5,0.484375 0,0.125 0.0625,0.1875 0.140625,0.265625 0.109375,0.109375 0.359375,0.359375 0.359375,0.84375 0,0.34375 -0.28125,1.3125 -0.546875,1.828125 -0.25,0.53125 -0.609375,0.875 -1.09375,0.875 -0.46875,0 -0.734375,-0.296875 -0.734375,-0.875 0,-0.265625 0.0625,-0.578125 0.109375,-0.71875 z m 0,0"
               id="id-1ff69596-0037-4d0f-8f55-5e0250148c52" />
          </symbol>
          <symbol
             overflow="visible"
             id="id-df1da44c-626f-4524-99fb-0aea29180ac8">
            <path
               style="stroke:none;stroke-width:0"
               d=""
               id="id-86a6e899-7ff6-4559-bd61-ef85a07cb9e7" />
          </symbol>
          <symbol
             overflow="visible"
             id="id-3eb99388-7094-43e5-a5be-b9c7d086c1ef">
            <path
               style="stroke:none;stroke-width:0"
               d="m 2.328125,-4.4375 c 0,-0.1875 0,-0.1875 -0.203125,-0.1875 -0.453125,0.4375 -1.078125,0.4375 -1.359375,0.4375 v 0.25 c 0.15625,0 0.625,0 1,-0.1875 v 3.546875 c 0,0.234375 0,0.328125 -0.6875,0.328125 H 0.8125 V 0 c 0.125,0 0.984375,-0.03125 1.234375,-0.03125 0.21875,0 1.09375,0.03125 1.25,0.03125 V -0.25 H 3.03125 c -0.703125,0 -0.703125,-0.09375 -0.703125,-0.328125 z m 0,0"
               id="id-b2448122-b4e0-465f-99ee-19061dd17dee" />
          </symbol>
        </g>
      </defs>
      <g
         id="id-380b625e-64b1-441d-b0bf-d3ad0db667ee"
         transform="translate(-148.993,-124.794)" />
    </g>
    <g
       style="fill:#000000;fill-opacity:1"
       id="id-4553eb72-3ad1-48b8-af13-517ba390e8a8"
       transform="matrix(0.39178217,0,0,0.39178217,103.9952,19.102485)" />
    <g
       id="g23"
       transform="matrix(0.39178217,0,0,0.39178217,23.879266,27.443112)">
      <g
         transform="translate(148.712,125.2)"
         id="g4"
         style="fill:#000000;fill-opacity:1">
        <path
           style="stroke:none;stroke-width:0"
           d="m 6.984375,23.421875 c 0,-0.04687 -0.03125,-0.0625 -0.046875,-0.09375 -0.375,-0.375 -1.03125,-1.03125 -1.703125,-2.109375 C 3.625,18.640625 2.90625,15.40625 2.90625,11.5625 c 0,-2.6875 0.359375,-6.140625 2,-9.109375 C 5.6875,1.03125 6.515625,0.21875 6.953125,-0.21875 c 0.03125,-0.03125 0.03125,-0.046875 0.03125,-0.078125 0,-0.109375 -0.078125,-0.109375 -0.21875,-0.109375 -0.140625,0 -0.15625,0 -0.3125,0.15625 -3.328125,3.046875 -4.375,7.609375 -4.375,11.796875 0,3.921875 0.890625,7.875 3.421875,10.859375 0.203125,0.21875 0.578125,0.625 0.984375,0.984375 0.125,0.125 0.140625,0.125 0.28125,0.125 0.140625,0 0.21875,0 0.21875,-0.09375 z m 0,0"
           id="id-58dc0e89-ae1d-47e3-87c0-b9c010ae9adc" />
      </g>
      <g
         style="fill:#000000;fill-opacity:1"
         id="id-a6806470-faec-424c-aa3d-ad899bfca58c">
        <g
           transform="translate(156.046,133.171)"
           id="g5">
          <path
             style="stroke:none;stroke-width:0"
             d="m 2.9375,-1.640625 v 0.859375 c 0,0.359375 -0.03125,0.46875 -0.765625,0.46875 H 1.96875 V 0 C 2.375,-0.03125 2.890625,-0.03125 3.3125,-0.03125 c 0.421875,0 0.9375,0 1.359375,0.03125 v -0.3125 h -0.21875 c -0.734375,0 -0.75,-0.109375 -0.75,-0.46875 V -1.640625 H 4.6875 v -0.3125 H 3.703125 v -4.53125 c 0,-0.203125 0,-0.265625 -0.171875,-0.265625 -0.078125,0 -0.109375,0 -0.1875,0.125 l -3.0625,4.671875 v 0.3125 z m 0.046875,-0.3125 H 0.5625 l 2.421875,-3.71875 z m 0,0"
             id="id-d2f4815c-e207-414b-8faf-3264589c35e0" />
        </g>
      </g>
      <g
         style="fill:#000000;fill-opacity:1"
         id="id-869c0c63-b934-4485-bfd3-2f1e47bcb576">
        <g
           transform="translate(156.046,145.126)"
           id="g6">
          <path
             style="stroke:none;stroke-width:0"
             d="m 2.9375,-6.375 c 0,-0.25 0,-0.265625 -0.234375,-0.265625 C 2.078125,-6 1.203125,-6 0.890625,-6 v 0.3125 c 0.203125,0 0.78125,0 1.296875,-0.265625 v 5.171875 c 0,0.359375 -0.03125,0.46875 -0.921875,0.46875 h -0.3125 V 0 c 0.34375,-0.03125 1.203125,-0.03125 1.609375,-0.03125 0.390625,0 1.265625,0 1.609375,0.03125 v -0.3125 h -0.3125 c -0.90625,0 -0.921875,-0.109375 -0.921875,-0.46875 z m 0,0"
             id="id-bc0a49ed-b40b-43d8-b7fc-403f4636cb86" />
        </g>
      </g>
      <g
         style="fill:#000000;fill-opacity:1"
         id="id-b0ccbb49-5d6c-41a0-91f8-c642e01980d0">
        <g
           transform="translate(161.027,125.2)"
           id="g7">
          <path
             style="stroke:none;stroke-width:0"
             d="M 5.25,11.5625 C 5.25,7.640625 4.359375,3.703125 1.828125,0.71875 1.625,0.484375 1.25,0.078125 0.84375,-0.28125 c -0.125,-0.125 -0.140625,-0.125 -0.28125,-0.125 -0.125,0 -0.21875,0 -0.21875,0.109375 0,0.03125 0.046875,0.078125 0.0625,0.09375 0.34375,0.359375 1.015625,1.03125 1.6875,2.109375 1.609375,2.5625 2.328125,5.8125 2.328125,9.640625 0,2.6875 -0.359375,6.140625 -2,9.125 -0.78125,1.40625 -1.609375,2.234375 -2.03125,2.65625 -0.015625,0.03125 -0.046875,0.0625 -0.046875,0.09375 0,0.09375 0.09375,0.09375 0.21875,0.09375 0.140625,0 0.15625,0 0.3125,-0.15625 C 4.203125,20.328125 5.25,15.765625 5.25,11.5625 Z m 0,0"
             id="id-593df094-1ec0-4661-a9d8-76d46d67e69c" />
        </g>
      </g>
    </g>
    <g
       id="g24"
       transform="matrix(0.39178217,0,0,0.39178217,12.630897,-4.3890066)">
      <g
         style="fill:#000000;fill-opacity:1"
         id="id-70666836-e222-4daa-9a74-a94c9f3b2bfb">
        <g
           transform="translate(148.712,150.107)"
           id="g8">
          <path
             style="stroke:none;stroke-width:0"
             d="m 6.984375,23.421875 c 0,-0.04687 -0.03125,-0.0625 -0.046875,-0.09375 -0.375,-0.375 -1.03125,-1.03125 -1.703125,-2.109375 C 3.625,18.640625 2.90625,15.40625 2.90625,11.5625 c 0,-2.6875 0.359375,-6.140625 2,-9.109375 C 5.6875,1.03125 6.515625,0.21875 6.953125,-0.21875 c 0.03125,-0.03125 0.03125,-0.046875 0.03125,-0.078125 0,-0.109375 -0.078125,-0.109375 -0.21875,-0.109375 -0.140625,0 -0.15625,0 -0.3125,0.15625 -3.328125,3.046875 -4.375,7.609375 -4.375,11.796875 0,3.921875 0.890625,7.875 3.421875,10.859375 0.203125,0.21875 0.578125,0.625 0.984375,0.984375 0.125,0.125 0.140625,0.125 0.28125,0.125 0.140625,0 0.21875,0 0.21875,-0.09375 z m 0,0"
             id="id-d90ec2fa-35fc-4b04-ac74-9debc61cf0e9" />
        </g>
      </g>
      <g
         style="fill:#000000;fill-opacity:1"
         id="id-ae0d68cc-8f5e-479d-a9aa-604f607d4327">
        <g
           transform="translate(156.046,158.078)"
           id="g9">
          <path
             style="stroke:none;stroke-width:0"
             d="m 2.890625,-3.515625 c 0.8125,-0.265625 1.390625,-0.953125 1.390625,-1.75 0,-0.8125 -0.875,-1.375 -1.828125,-1.375 -1,0 -1.765625,0.59375 -1.765625,1.359375 0,0.328125 0.21875,0.515625 0.515625,0.515625 0.296875,0 0.5,-0.21875 0.5,-0.515625 0,-0.484375 -0.46875,-0.484375 -0.609375,-0.484375 0.296875,-0.5 0.953125,-0.625 1.3125,-0.625 0.421875,0 0.96875,0.21875 0.96875,1.109375 0,0.125 -0.03125,0.703125 -0.28125,1.140625 C 2.796875,-3.65625 2.453125,-3.625 2.203125,-3.625 2.125,-3.609375 1.890625,-3.59375 1.8125,-3.59375 c -0.078125,0.015625 -0.140625,0.03125 -0.140625,0.125 0,0.109375 0.0625,0.109375 0.234375,0.109375 h 0.4375 c 0.8125,0 1.1875,0.671875 1.1875,1.65625 0,1.359375 -0.6875,1.640625 -1.125,1.640625 -0.4375,0 -1.1875,-0.171875 -1.53125,-0.75 0.34375,0.046875 0.65625,-0.171875 0.65625,-0.546875 0,-0.359375 -0.265625,-0.5625 -0.546875,-0.5625 -0.25,0 -0.5625,0.140625 -0.5625,0.578125 0,0.90625 0.921875,1.5625 2.015625,1.5625 1.21875,0 2.125,-0.90625 2.125,-1.921875 0,-0.8125 -0.640625,-1.59375 -1.671875,-1.8125 z m 0,0"
             id="id-42f74079-9885-44b0-a51d-18e377e44e8b" />
        </g>
      </g>
      <g
         style="fill:#000000;fill-opacity:1"
         id="id-315bfc08-15d1-476c-bd0f-5858ac9bdb7a">
        <g
           transform="translate(156.046,170.033)"
           id="g10">
          <path
             style="stroke:none;stroke-width:0"
             d="m 2.890625,-3.515625 c 0.8125,-0.265625 1.390625,-0.953125 1.390625,-1.75 0,-0.8125 -0.875,-1.375 -1.828125,-1.375 -1,0 -1.765625,0.59375 -1.765625,1.359375 0,0.328125 0.21875,0.515625 0.515625,0.515625 0.296875,0 0.5,-0.21875 0.5,-0.515625 0,-0.484375 -0.46875,-0.484375 -0.609375,-0.484375 0.296875,-0.5 0.953125,-0.625 1.3125,-0.625 0.421875,0 0.96875,0.21875 0.96875,1.109375 0,0.125 -0.03125,0.703125 -0.28125,1.140625 C 2.796875,-3.65625 2.453125,-3.625 2.203125,-3.625 2.125,-3.609375 1.890625,-3.59375 1.8125,-3.59375 c -0.078125,0.015625 -0.140625,0.03125 -0.140625,0.125 0,0.109375 0.0625,0.109375 0.234375,0.109375 h 0.4375 c 0.8125,0 1.1875,0.671875 1.1875,1.65625 0,1.359375 -0.6875,1.640625 -1.125,1.640625 -0.4375,0 -1.1875,-0.171875 -1.53125,-0.75 0.34375,0.046875 0.65625,-0.171875 0.65625,-0.546875 0,-0.359375 -0.265625,-0.5625 -0.546875,-0.5625 -0.25,0 -0.5625,0.140625 -0.5625,0.578125 0,0.90625 0.921875,1.5625 2.015625,1.5625 1.21875,0 2.125,-0.90625 2.125,-1.921875 0,-0.8125 -0.640625,-1.59375 -1.671875,-1.8125 z m 0,0"
             id="id-0900a88d-9ce9-40b4-a1db-f1ae94540bb0" />
        </g>
      </g>
      <g
         style="fill:#000000;fill-opacity:1"
         id="id-3ada2063-303e-42a4-bd1c-3355d50b6611">
        <g
           transform="translate(161.027,150.107)"
           id="g11">
          <path
             style="stroke:none;stroke-width:0"
             d="M 5.25,11.5625 C 5.25,7.640625 4.359375,3.703125 1.828125,0.71875 1.625,0.484375 1.25,0.078125 0.84375,-0.28125 c -0.125,-0.125 -0.140625,-0.125 -0.28125,-0.125 -0.125,0 -0.21875,0 -0.21875,0.109375 0,0.03125 0.046875,0.078125 0.0625,0.09375 0.34375,0.359375 1.015625,1.03125 1.6875,2.109375 1.609375,2.5625 2.328125,5.8125 2.328125,9.640625 0,2.6875 -0.359375,6.140625 -2,9.125 -0.78125,1.40625 -1.609375,2.234375 -2.03125,2.65625 -0.015625,0.03125 -0.046875,0.0625 -0.046875,0.09375 0,0.09375 0.09375,0.09375 0.21875,0.09375 0.140625,0 0.15625,0 0.3125,-0.15625 C 4.203125,20.328125 5.25,15.765625 5.25,11.5625 Z m 0,0"
             id="id-96e7c6c7-d315-444e-b2be-07591f1a5d0b" />
        </g>
      </g>
    </g>
    <g
       id="g25"
       transform="matrix(0.39178217,0,0,0.39178217,-9.7128017,-25.355354)">
      <g
         style="fill:#000000;fill-opacity:1"
         id="id-bead92ac-5cda-48ee-b510-954462a4beeb">
        <g
           transform="translate(148.712,175.014)"
           id="g12">
          <path
             style="stroke:none;stroke-width:0"
             d="m 6.984375,23.421875 c 0,-0.04687 -0.03125,-0.0625 -0.046875,-0.09375 -0.375,-0.375 -1.03125,-1.03125 -1.703125,-2.109375 C 3.625,18.640625 2.90625,15.40625 2.90625,11.5625 c 0,-2.6875 0.359375,-6.140625 2,-9.109375 C 5.6875,1.03125 6.515625,0.21875 6.953125,-0.21875 c 0.03125,-0.03125 0.03125,-0.046875 0.03125,-0.078125 0,-0.109375 -0.078125,-0.109375 -0.21875,-0.109375 -0.140625,0 -0.15625,0 -0.3125,0.15625 -3.328125,3.046875 -4.375,7.609375 -4.375,11.796875 0,3.921875 0.890625,7.875 3.421875,10.859375 0.203125,0.21875 0.578125,0.625 0.984375,0.984375 0.125,0.125 0.140625,0.125 0.28125,0.125 0.140625,0 0.21875,0 0.21875,-0.09375 z m 0,0"
             id="id-e0a198b5-f011-42ae-bfd9-d7f555737324" />
        </g>
      </g>
      <g
         style="fill:#000000;fill-opacity:1"
         id="id-141afe7c-9ee0-4587-a197-84565f37bc96">
        <g
           transform="translate(156.046,182.984)"
           id="g13">
          <path
             style="stroke:none;stroke-width:0"
             d="m 2.9375,-6.375 c 0,-0.25 0,-0.265625 -0.234375,-0.265625 C 2.078125,-6 1.203125,-6 0.890625,-6 v 0.3125 c 0.203125,0 0.78125,0 1.296875,-0.265625 v 5.171875 c 0,0.359375 -0.03125,0.46875 -0.921875,0.46875 h -0.3125 V 0 c 0.34375,-0.03125 1.203125,-0.03125 1.609375,-0.03125 0.390625,0 1.265625,0 1.609375,0.03125 v -0.3125 h -0.3125 c -0.90625,0 -0.921875,-0.109375 -0.921875,-0.46875 z m 0,0"
             id="id-37bee6a9-c08c-4590-93f8-abd815a887bf" />
        </g>
      </g>
      <g
         style="fill:#000000;fill-opacity:1"
         id="id-333d29f2-ada3-4d73-8d2c-29e691f57671">
        <g
           transform="translate(156.046,194.94)"
           id="g14">
          <path
             style="stroke:none;stroke-width:0"
             d="m 2.9375,-1.640625 v 0.859375 c 0,0.359375 -0.03125,0.46875 -0.765625,0.46875 H 1.96875 V 0 C 2.375,-0.03125 2.890625,-0.03125 3.3125,-0.03125 c 0.421875,0 0.9375,0 1.359375,0.03125 v -0.3125 h -0.21875 c -0.734375,0 -0.75,-0.109375 -0.75,-0.46875 V -1.640625 H 4.6875 v -0.3125 H 3.703125 v -4.53125 c 0,-0.203125 0,-0.265625 -0.171875,-0.265625 -0.078125,0 -0.109375,0 -0.1875,0.125 l -3.0625,4.671875 v 0.3125 z m 0.046875,-0.3125 H 0.5625 l 2.421875,-3.71875 z m 0,0"
             id="id-cab5372d-2663-450c-8f81-f2f2e8093857" />
        </g>
      </g>
      <g
         style="fill:#000000;fill-opacity:1"
         id="id-9fb16b19-be3f-4128-8753-81855dd2d74b">
        <g
           transform="translate(161.027,175.014)"
           id="g15">
          <path
             style="stroke:none;stroke-width:0"
             d="M 5.25,11.5625 C 5.25,7.640625 4.359375,3.703125 1.828125,0.71875 1.625,0.484375 1.25,0.078125 0.84375,-0.28125 c -0.125,-0.125 -0.140625,-0.125 -0.28125,-0.125 -0.125,0 -0.21875,0 -0.21875,0.109375 0,0.03125 0.046875,0.078125 0.0625,0.09375 0.34375,0.359375 1.015625,1.03125 1.6875,2.109375 1.609375,2.5625 2.328125,5.8125 2.328125,9.640625 0,2.6875 -0.359375,6.140625 -2,9.125 -0.78125,1.40625 -1.609375,2.234375 -2.03125,2.65625 -0.015625,0.03125 -0.046875,0.0625 -0.046875,0.09375 0,0.09375 0.09375,0.09375 0.21875,0.09375 0.140625,0 0.15625,0 0.3125,-0.15625 C 4.203125,20.328125 5.25,15.765625 5.25,11.5625 Z m 0,0"
             id="id-e3b1d14b-7897-4e2e-a432-a6e26c279c42" />
        </g>
      </g>
    </g>
    <g
       style="fill:#000000;fill-opacity:1"
       id="id-2364b0f3-1312-4821-ac9b-047aea441feb"
       transform="matrix(0.39178217,0,0,0.39178217,40.71356,-32.165591)">
      <g
         transform="translate(148.712,205.943)"
         id="g16">
        <path
           style="stroke:none;stroke-width:0"
           d="m 2.9375,-1.640625 v 0.859375 c 0,0.359375 -0.03125,0.46875 -0.765625,0.46875 H 1.96875 V 0 C 2.375,-0.03125 2.890625,-0.03125 3.3125,-0.03125 c 0.421875,0 0.9375,0 1.359375,0.03125 v -0.3125 h -0.21875 c -0.734375,0 -0.75,-0.109375 -0.75,-0.46875 V -1.640625 H 4.6875 v -0.3125 H 3.703125 v -4.53125 c 0,-0.203125 0,-0.265625 -0.171875,-0.265625 -0.078125,0 -0.109375,0 -0.1875,0.125 l -3.0625,4.671875 v 0.3125 z m 0.046875,-0.3125 H 0.5625 l 2.421875,-3.71875 z m 0,0"
           id="id-a8f8c11d-b073-4cc3-9e12-54fb242264b2" />
      </g>
    </g>
    <g
       style="fill:#000000;fill-opacity:1"
       id="id-02cc4a2b-565e-431d-b123-7d4efc88ec04"
       transform="matrix(0.39178217,0,0,0.39178217,40.71356,-25.202315)">
      <g
         transform="translate(148.712,217.898)"
         id="g17">
        <path
           style="stroke:none;stroke-width:0"
           d="m 2.890625,-3.515625 c 0.8125,-0.265625 1.390625,-0.953125 1.390625,-1.75 0,-0.8125 -0.875,-1.375 -1.828125,-1.375 -1,0 -1.765625,0.59375 -1.765625,1.359375 0,0.328125 0.21875,0.515625 0.515625,0.515625 0.296875,0 0.5,-0.21875 0.5,-0.515625 0,-0.484375 -0.46875,-0.484375 -0.609375,-0.484375 0.296875,-0.5 0.953125,-0.625 1.3125,-0.625 0.421875,0 0.96875,0.21875 0.96875,1.109375 0,0.125 -0.03125,0.703125 -0.28125,1.140625 C 2.796875,-3.65625 2.453125,-3.625 2.203125,-3.625 2.125,-3.609375 1.890625,-3.59375 1.8125,-3.59375 c -0.078125,0.015625 -0.140625,0.03125 -0.140625,0.125 0,0.109375 0.0625,0.109375 0.234375,0.109375 h 0.4375 c 0.8125,0 1.1875,0.671875 1.1875,1.65625 0,1.359375 -0.6875,1.640625 -1.125,1.640625 -0.4375,0 -1.1875,-0.171875 -1.53125,-0.75 0.34375,0.046875 0.65625,-0.171875 0.65625,-0.546875 0,-0.359375 -0.265625,-0.5625 -0.546875,-0.5625 -0.25,0 -0.5625,0.140625 -0.5625,0.578125 0,0.90625 0.921875,1.5625 2.015625,1.5625 1.21875,0 2.125,-0.90625 2.125,-1.921875 0,-0.8125 -0.640625,-1.59375 -1.671875,-1.8125 z m 0,0"
           id="id-c539b2b2-e167-4d15-a804-bedc35614e99" />
      </g>
    </g>
    <g
       style="fill:#000000;fill-opacity:1"
       id="id-b0c1f93b-d707-4d43-a740-f4eb72a91d63"
       transform="matrix(0.39178217,0,0,0.39178217,40.407482,-7.8323849)">
      <g
         transform="translate(148.712,229.853)"
         id="g18">
        <path
           style="stroke:none;stroke-width:0"
           d="m 2.9375,-6.375 c 0,-0.25 0,-0.265625 -0.234375,-0.265625 C 2.078125,-6 1.203125,-6 0.890625,-6 v 0.3125 c 0.203125,0 0.78125,0 1.296875,-0.265625 v 5.171875 c 0,0.359375 -0.03125,0.46875 -0.921875,0.46875 h -0.3125 V 0 c 0.34375,-0.03125 1.203125,-0.03125 1.609375,-0.03125 0.390625,0 1.265625,0 1.609375,0.03125 v -0.3125 h -0.3125 c -0.90625,0 -0.921875,-0.109375 -0.921875,-0.46875 z m 0,0"
           id="id-11116e85-c2e0-4d32-9afc-beeb0d096172" />
      </g>
    </g>
    <g
       style="fill:#000000;fill-opacity:1"
       id="id-b0c1f93b-d707-4d43-a740-f4eb72a91d63-2"
       transform="matrix(0.39178217,0,0,0.39178217,87.356512,7.0258485)">
      <g
         transform="translate(148.712,229.853)"
         id="g18-0">
        <path
           style="stroke:none;stroke-width:0"
           d="m 2.9375,-6.375 c 0,-0.25 0,-0.265625 -0.234375,-0.265625 C 2.078125,-6 1.203125,-6 0.890625,-6 v 0.3125 c 0.203125,0 0.78125,0 1.296875,-0.265625 v 5.171875 c 0,0.359375 -0.03125,0.46875 -0.921875,0.46875 h -0.3125 V 0 c 0.34375,-0.03125 1.203125,-0.03125 1.609375,-0.03125 0.390625,0 1.265625,0 1.609375,0.03125 v -0.3125 h -0.3125 c -0.90625,0 -0.921875,-0.109375 -0.921875,-0.46875 z m 0,0"
           id="id-11116e85-c2e0-4d32-9afc-beeb0d096172-6" />
      </g>
    </g>
    <g
       style="fill:#000000;fill-opacity:1"
       id="id-3b32be40-9329-4d6e-93d8-176411743fd0"
       transform="matrix(0.39178217,0,0,0.39178217,42.396989,2.2681913)">
      <g
         transform="translate(148.712,241.808)"
         id="g19">
        <path
           style="stroke:none;stroke-width:0"
           d="m 4.578125,-3.1875 c 0,-0.796875 -0.046875,-1.59375 -0.390625,-2.328125 -0.453125,-0.96875 -1.28125,-1.125 -1.6875,-1.125 -0.609375,0 -1.328125,0.265625 -1.75,1.1875 -0.3125,0.6875 -0.359375,1.46875 -0.359375,2.265625 0,0.75 0.03125,1.640625 0.453125,2.40625 0.421875,0.796875 1.15625,1 1.640625,1 0.53125,0 1.296875,-0.203125 1.734375,-1.15625 0.3125,-0.6875 0.359375,-1.46875 0.359375,-2.25 z M 2.484375,0 C 2.09375,0 1.5,-0.25 1.328125,-1.203125 1.21875,-1.796875 1.21875,-2.71875 1.21875,-3.3125 c 0,-0.640625 0,-1.296875 0.078125,-1.828125 0.1875,-1.1875 0.9375,-1.28125 1.1875,-1.28125 0.328125,0 0.984375,0.1875 1.171875,1.171875 0.109375,0.5625 0.109375,1.3125 0.109375,1.9375 0,0.75 0,1.421875 -0.109375,2.0625 C 3.5,-0.296875 2.9375,0 2.484375,0 Z m 0,0"
           id="id-7cdadea1-21a5-4f78-a8ce-cb11fd9239fb" />
      </g>
    </g>
    <g
       id="g26"
       transform="matrix(0.39178217,0,0,0.39178217,97.491041,-2.5525382)">
      <g
         style="fill:#000000;fill-opacity:1"
         id="id-bb8bd91e-8858-4104-b370-3fbc1c3a812f">
        <g
           transform="translate(148.712,253.764)"
           id="g20">
          <path
             style="stroke:none;stroke-width:0"
             d="M 4.609375,-3.375 C 4.65625,-3.59375 4.75,-3.96875 4.75,-4.03125 c 0,-0.171875 -0.140625,-0.265625 -0.28125,-0.265625 -0.125,0 -0.296875,0.078125 -0.375,0.28125 -0.03125,0.0625 -0.5,1.96875 -0.5625,2.234375 C 3.453125,-1.484375 3.4375,-1.3125 3.4375,-1.125 c 0,0.109375 0,0.125 0.015625,0.171875 -0.234375,0.53125 -0.53125,0.84375 -0.921875,0.84375 -0.796875,0 -0.796875,-0.734375 -0.796875,-0.90625 0,-0.3125 0.046875,-0.703125 0.515625,-1.9375 0.109375,-0.296875 0.171875,-0.4375 0.171875,-0.640625 0,-0.4375 -0.328125,-0.8125 -0.8125,-0.8125 -0.953125,0 -1.3125,1.453125 -1.3125,1.53125 0,0.109375 0.09375,0.109375 0.109375,0.109375 0.109375,0 0.109375,-0.03125 0.15625,-0.1875 C 0.84375,-3.875 1.21875,-4.1875 1.578125,-4.1875 c 0.09375,0 0.25,0.015625 0.25,0.328125 0,0.25 -0.109375,0.53125 -0.1875,0.703125 -0.4375,1.171875 -0.546875,1.625 -0.546875,2.015625 0,0.90625 0.65625,1.25 1.40625,1.25 0.171875,0 0.640625,0 1.03125,-0.703125 0.265625,0.640625 0.953125,0.703125 1.25,0.703125 0.75,0 1.1875,-0.625 1.453125,-1.21875 0.328125,-0.78125 0.65625,-2.125 0.65625,-2.59375 0,-0.546875 -0.265625,-0.703125 -0.4375,-0.703125 -0.25,0 -0.5,0.265625 -0.5,0.484375 0,0.125 0.0625,0.1875 0.140625,0.265625 0.109375,0.109375 0.359375,0.359375 0.359375,0.84375 0,0.34375 -0.28125,1.3125 -0.546875,1.828125 -0.25,0.53125 -0.609375,0.875 -1.09375,0.875 -0.46875,0 -0.734375,-0.296875 -0.734375,-0.875 0,-0.265625 0.0625,-0.578125 0.109375,-0.71875 z m 0,0"
             id="id-6122b50d-c6c3-4e0d-97d5-52cfdfb13d66" />
        </g>
      </g>
      <g
         style="fill:#000000;fill-opacity:1"
         id="id-407d2400-71f4-4681-a080-b481de5c3226">
        <g
           transform="translate(155.845,255.258)"
           id="g21">
          <path
             style="stroke:none;stroke-width:0"
             d="m 2.328125,-4.4375 c 0,-0.1875 0,-0.1875 -0.203125,-0.1875 -0.453125,0.4375 -1.078125,0.4375 -1.359375,0.4375 v 0.25 c 0.15625,0 0.625,0 1,-0.1875 v 3.546875 c 0,0.234375 0,0.328125 -0.6875,0.328125 H 0.8125 V 0 c 0.125,0 0.984375,-0.03125 1.234375,-0.03125 0.21875,0 1.09375,0.03125 1.25,0.03125 V -0.25 H 3.03125 c -0.703125,0 -0.703125,-0.09375 -0.703125,-0.328125 z m 0,0"
             id="id-09b0877a-2cca-495d-8b71-61251ce24a02" />
        </g>
      </g>
    </g>
  </g>
</svg>
