<?xml version="1.0" encoding="UTF-8" standalone="no"?>
<!-- Created with Inkscape (http://www.inkscape.org/) -->

<svg
   width="110.56088mm"
   height="48.050579mm"
   viewBox="0 0 110.56088 48.05058"
   version="1.1"
   id="svg1"
   inkscape:version="1.4.3 (1:1.4.3+202512261034+0d15f75042)"
   sodipodi:docname="simplex_map_example.svg"
   inkscape:export-filename="simplex_map_example.pdf"
   inkscape:export-xdpi="96"
   inkscape:export-ydpi="96"
   xmlns:inkscape="http://www.inkscape.org/namespaces/inkscape"
   xmlns:sodipodi="http://sodipodi.sourceforge.net/DTD/sodipodi-0.dtd"
   xmlns="http://www.w3.org/2000/svg"
   xmlns:svg="http://www.w3.org/2000/svg"
   xmlns:ns18="http://www.iki.fi/pav/software/textext/">
  <sodipodi:namedview
     id="namedview1"
     pagecolor="#505050"
     bordercolor="#ffffff"
     borderopacity="1"
     inkscape:showpageshadow="0"
     inkscape:pageopacity="0"
     inkscape:pagecheckerboard="1"
     inkscape:deskcolor="#505050"
     inkscape:document-units="mm"
     showgrid="false"
     inkscape:zoom="6.5128302"
     inkscape:cx="177.64934"
     inkscape:cy="120.14746"
     inkscape:window-width="3840"
     inkscape:window-height="2096"
     inkscape:window-x="1080"
     inkscape:window-y="27"
     inkscape:window-maximized="1"
     inkscape:current-layer="id-cda827a5-b43c-40d6-9267-21a7644cf08e" />
  <defs
     id="defs1">
    <marker
       style="overflow:visible"
       id="ArrowWideRounded"
       refX="0"
       refY="0"
       orient="auto-start-reverse"
       inkscape:stockid="Wide, rounded arrow"
       markerWidth="1"
       markerHeight="1"
       viewBox="0 0 1 1"
       inkscape:isstock="true"
       inkscape:collect="always"
       preserveAspectRatio="xMidYMid">
      <path
         style="fill:none;stroke:context-stroke;stroke-width:1;stroke-linecap:round"
         d="M 3,-3 0,0 3,3"
         transform="rotate(180,0.125,0)"
         sodipodi:nodetypes="ccc"
         id="path2" />
    </marker>
    <marker
       style="overflow:visible"
       id="ArrowWideRounded-7"
       refX="0"
       refY="0"
       orient="auto-start-reverse"
       inkscape:stockid="Wide, rounded arrow"
       markerWidth="1"
       markerHeight="1"
       viewBox="0 0 1 1"
       inkscape:isstock="true"
       inkscape:collect="always"
       preserveAspectRatio="xMidYMid">
      <path
         style="fill:none;stroke:context-stroke;stroke-width:1;stroke-linecap:round"
         d="M 3,-3 0,0 3,3"
         transform="rotate(180,0.125,0)"
         sodipodi:nodetypes="ccc"
         id="path2-8" />
    </marker>
    <marker
       style="overflow:visible"
       id="ArrowWideRounded-7-1"
       refX="0"
       refY="0"
       orient="auto-start-reverse"
       inkscape:stockid="Wide, rounded arrow"
       markerWidth="1"
       markerHeight="1"
       viewBox="0 0 1 1"
       inkscape:isstock="true"
       inkscape:collect="always"
       preserveAspectRatio="xMidYMid">
      <path
         style="fill:none;stroke:context-stroke;stroke-width:1;stroke-linecap:round"
         d="M 3,-3 0,0 3,3"
         transform="rotate(180,0.125,0)"
         sodipodi:nodetypes="ccc"
         id="path2-8-0" />
    </marker>
    <marker
       style="overflow:visible"
       id="ArrowWideRounded-1"
       refX="0"
       refY="0"
       orient="auto-start-reverse"
       inkscape:stockid="Wide, rounded arrow"
       markerWidth="1"
       markerHeight="1"
       viewBox="0 0 1 1"
       inkscape:isstock="true"
       inkscape:collect="always"
       preserveAspectRatio="xMidYMid">
      <path
         style="fill:none;stroke:context-stroke;stroke-width:1;stroke-linecap:round"
         d="M 3,-3 0,0 3,3"
         transform="rotate(180,0.125,0)"
         sodipodi:nodetypes="ccc"
         id="path2-5" />
    </marker>
  </defs>
  <g
     inkscape:label="Layer 1"
     inkscape:groupmode="layer"
     id="layer1"
     transform="translate(-32.58008,-38.299456)">
    <path
       style="display:inline;fill:none;fill-rule:evenodd;stroke:#000000;stroke-width:0.466;stroke-linecap:butt;stroke-linejoin:miter;stroke-dasharray:none;stroke-opacity:1"
       d="m 57.497486,46.344879 v 37.00932"
       id="path3"
       inkscape:connector-type="polyline"
       inkscape:connector-curvature="0" />
    <path
       style="display:inline;fill:none;fill-rule:evenodd;stroke:#000000;stroke-width:0.466;stroke-linecap:butt;stroke-linejoin:miter;stroke-dasharray:none;stroke-opacity:1"
       d="M 68.709969,65.479226 57.659986,83.394824"
       id="path3-3"
       inkscape:connector-type="polyline"
       inkscape:connector-curvature="0" />
    <g
       transform="matrix(0.39178217,0,0,0.39178217,162.368,67.994549)"
       ns18:version="1.10.2"
       ns18:texconverter="pdflatex"
       ns18:pdfconverter="inkscape"
       ns18:text="$\\begin{pmatrix} 4 \\\\ 1 \\end{pmatrix}$\n\n$\\begin{pmatrix} 3 \\\\ 3 \\end{pmatrix}$\n\n$\\begin{pmatrix} 1 \\\\ 4 \\end{pmatrix}$\n\n4\n\n3\n\n1\n\n0\n\n$w_1$"
       ns18:preamble="/home/michael/.config/inkscape/extensions/textext/default_packages.tex"
       ns18:scale="1.6"
       ns18:alignment="middle center"
       ns18:stroke-to-path="0"
       ns18:inkscapeversion="1.4.3"
       ns18:jacobian_sqrt="0.564445"
       id="g22">
      <defs
         id="id-a18d6859-fbe0-4e92-8b36-bef6939d5791">
        <g
           id="id-2efa7773-3999-4c48-88d1-84d942956e9e">
          <symbol
             overflow="visible"
             id="id-aaa9fc38-91f4-4b50-a3a3-725f788cfa58">
            <path
               style="stroke:none;stroke-width:0"
               d=""
               id="id-c17695e0-1cd3-4420-a782-a0d73ec21ad0" />
          </symbol>
          <symbol
             overflow="visible"
             id="id-869389dc-e018-4d80-9ded-cbefe5f3e811">
            <path
               style="stroke:none;stroke-width:0"
               d="m 6.984375,23.421875 c 0,-0.04687 -0.03125,-0.0625 -0.046875,-0.09375 -0.375,-0.375 -1.03125,-1.03125 -1.703125,-2.109375 C 3.625,18.640625 2.90625,15.40625 2.90625,11.5625 c 0,-2.6875 0.359375,-6.140625 2,-9.109375 C 5.6875,1.03125 6.515625,0.21875 6.953125,-0.21875 c 0.03125,-0.03125 0.03125,-0.046875 0.03125,-0.078125 0,-0.109375 -0.078125,-0.109375 -0.21875,-0.109375 -0.140625,0 -0.15625,0 -0.3125,0.15625 -3.328125,3.046875 -4.375,7.609375 -4.375,11.796875 0,3.921875 0.890625,7.875 3.421875,10.859375 0.203125,0.21875 0.578125,0.625 0.984375,0.984375 0.125,0.125 0.140625,0.125 0.28125,0.125 0.140625,0 0.21875,0 0.21875,-0.09375 z m 0,0"
               id="id-36adfd63-06e7-491c-b9b3-0cb52e3eca58" />
          </symbol>
          <symbol
             overflow="visible"
             id="id-a07b290d-e73c-459f-8c24-1ac772363302">
            <path
               style="stroke:none;stroke-width:0"
               d="M 5.25,11.5625 C 5.25,7.640625 4.359375,3.703125 1.828125,0.71875 1.625,0.484375 1.25,0.078125 0.84375,-0.28125 c -0.125,-0.125 -0.140625,-0.125 -0.28125,-0.125 -0.125,0 -0.21875,0 -0.21875,0.109375 0,0.03125 0.046875,0.078125 0.0625,0.09375 0.34375,0.359375 1.015625,1.03125 1.6875,2.109375 1.609375,2.5625 2.328125,5.8125 2.328125,9.640625 0,2.6875 -0.359375,6.140625 -2,9.125 -0.78125,1.40625 -1.609375,2.234375 -2.03125,2.65625 -0.015625,0.03125 -0.046875,0.0625 -0.046875,0.09375 0,0.09375 0.09375,0.09375 0.21875,0.09375 0.140625,0 0.15625,0 0.3125,-0.15625 C 4.203125,20.328125 5.25,15.765625 5.25,11.5625 Z m 0,0"
               id="id-20328da8-8661-4895-bd73-731a6850ec47" />
          </symbol>
          <symbol
             overflow="visible"
             id="id-08efb1aa-2bfe-49e8-bba1-104ec4683e24">
            <path
               style="stroke:none;stroke-width:0"
               d=""
               id="id-c6e859d5-835a-4851-ba4b-2d843a2a3cd8" />
          </symbol>
          <symbol
             overflow="visible"
             id="id-1d8b3742-e332-4401-8e25-5ebd8337e81c">
            <path
               style="stroke:none;stroke-width:0"
               d="m 2.9375,-1.640625 v 0.859375 c 0,0.359375 -0.03125,0.46875 -0.765625,0.46875 H 1.96875 V 0 C 2.375,-0.03125 2.890625,-0.03125 3.3125,-0.03125 c 0.421875,0 0.9375,0 1.359375,0.03125 v -0.3125 h -0.21875 c -0.734375,0 -0.75,-0.109375 -0.75,-0.46875 V -1.640625 H 4.6875 v -0.3125 H 3.703125 v -4.53125 c 0,-0.203125 0,-0.265625 -0.171875,-0.265625 -0.078125,0 -0.109375,0 -0.1875,0.125 l -3.0625,4.671875 v 0.3125 z m 0.046875,-0.3125 H 0.5625 l 2.421875,-3.71875 z m 0,0"
               id="id-1dea63a9-68af-432a-b61a-1ce340055c45" />
          </symbol>
          <symbol
             overflow="visible"
             id="id-2cf41ae7-59b1-4e14-acc9-bc70d44961ca">
            <path
               style="stroke:none;stroke-width:0"
               d="m 2.9375,-6.375 c 0,-0.25 0,-0.265625 -0.234375,-0.265625 C 2.078125,-6 1.203125,-6 0.890625,-6 v 0.3125 c 0.203125,0 0.78125,0 1.296875,-0.265625 v 5.171875 c 0,0.359375 -0.03125,0.46875 -0.921875,0.46875 h -0.3125 V 0 c 0.34375,-0.03125 1.203125,-0.03125 1.609375,-0.03125 0.390625,0 1.265625,0 1.609375,0.03125 v -0.3125 h -0.3125 c -0.90625,0 -0.921875,-0.109375 -0.921875,-0.46875 z m 0,0"
               id="id-aea1e4f7-ec81-488b-a13e-67539b7aa042" />
          </symbol>
          <symbol
             overflow="visible"
             id="id-39bfc0f8-d2bb-4566-bedc-62b5a576b518">
            <path
               style="stroke:none;stroke-width:0"
               d="m 2.890625,-3.515625 c 0.8125,-0.265625 1.390625,-0.953125 1.390625,-1.75 0,-0.8125 -0.875,-1.375 -1.828125,-1.375 -1,0 -1.765625,0.59375 -1.765625,1.359375 0,0.328125 0.21875,0.515625 0.515625,0.515625 0.296875,0 0.5,-0.21875 0.5,-0.515625 0,-0.484375 -0.46875,-0.484375 -0.609375,-0.484375 0.296875,-0.5 0.953125,-0.625 1.3125,-0.625 0.421875,0 0.96875,0.21875 0.96875,1.109375 0,0.125 -0.03125,0.703125 -0.28125,1.140625 C 2.796875,-3.65625 2.453125,-3.625 2.203125,-3.625 2.125,-3.609375 1.890625,-3.59375 1.8125,-3.59375 c -0.078125,0.015625 -0.140625,0.03125 -0.140625,0.125 0,0.109375 0.0625,0.109375 0.234375,0.109375 h 0.4375 c 0.8125,0 1.1875,0.671875 1.1875,1.65625 0,1.359375 -0.6875,1.640625 -1.125,1.640625 -0.4375,0 -1.1875,-0.171875 -1.53125,-0.75 0.34375,0.046875 0.65625,-0.171875 0.65625,-0.546875 0,-0.359375 -0.265625,-0.5625 -0.546875,-0.5625 -0.25,0 -0.5625,0.140625 -0.5625,0.578125 0,0.90625 0.921875,1.5625 2.015625,1.5625 1.21875,0 2.125,-0.90625 2.125,-1.921875 0,-0.8125 -0.640625,-1.59375 -1.671875,-1.8125 z m 0,0"
               id="id-bc986b4f-bb2c-4e1a-ada3-cb01cbef3776" />
          </symbol>
          <symbol
             overflow="visible"
             id="id-f9eb498c-1189-467e-b0a4-bf3078e3247f">
            <path
               style="stroke:none;stroke-width:0"
               d="m 4.578125,-3.1875 c 0,-0.796875 -0.046875,-1.59375 -0.390625,-2.328125 -0.453125,-0.96875 -1.28125,-1.125 -1.6875,-1.125 -0.609375,0 -1.328125,0.265625 -1.75,1.1875 -0.3125,0.6875 -0.359375,1.46875 -0.359375,2.265625 0,0.75 0.03125,1.640625 0.453125,2.40625 0.421875,0.796875 1.15625,1 1.640625,1 0.53125,0 1.296875,-0.203125 1.734375,-1.15625 0.3125,-0.6875 0.359375,-1.46875 0.359375,-2.25 z M 2.484375,0 C 2.09375,0 1.5,-0.25 1.328125,-1.203125 1.21875,-1.796875 1.21875,-2.71875 1.21875,-3.3125 c 0,-0.640625 0,-1.296875 0.078125,-1.828125 0.1875,-1.1875 0.9375,-1.28125 1.1875,-1.28125 0.328125,0 0.984375,0.1875 1.171875,1.171875 0.109375,0.5625 0.109375,1.3125 0.109375,1.9375 0,0.75 0,1.421875 -0.109375,2.0625 C 3.5,-0.296875 2.9375,0 2.484375,0 Z m 0,0"
               id="id-0c817156-6874-4491-b4fc-c1f255a192c8" />
          </symbol>
          <symbol
             overflow="visible"
             id="id-6c422243-24d5-49c6-98e1-d1a823fe94e8">
            <path
               style="stroke:none;stroke-width:0"
               d=""
               id="id-c4386af9-7896-4702-8ed2-22d7c8e5429e" />
          </symbol>
          <symbol
             overflow="visible"
             id="id-a2311a8b-b95f-4d33-ad61-53828a8c7539">
            <path
               style="stroke:none;stroke-width:0"
               d="M 4.609375,-3.375 C 4.65625,-3.59375 4.75,-3.96875 4.75,-4.03125 c 0,-0.171875 -0.140625,-0.265625 -0.28125,-0.265625 -0.125,0 -0.296875,0.078125 -0.375,0.28125 -0.03125,0.0625 -0.5,1.96875 -0.5625,2.234375 C 3.453125,-1.484375 3.4375,-1.3125 3.4375,-1.125 c 0,0.109375 0,0.125 0.015625,0.171875 -0.234375,0.53125 -0.53125,0.84375 -0.921875,0.84375 -0.796875,0 -0.796875,-0.734375 -0.796875,-0.90625 0,-0.3125 0.046875,-0.703125 0.515625,-1.9375 0.109375,-0.296875 0.171875,-0.4375 0.171875,-0.640625 0,-0.4375 -0.328125,-0.8125 -0.8125,-0.8125 -0.953125,0 -1.3125,1.453125 -1.3125,1.53125 0,0.109375 0.09375,0.109375 0.109375,0.109375 0.109375,0 0.109375,-0.03125 0.15625,-0.1875 C 0.84375,-3.875 1.21875,-4.1875 1.578125,-4.1875 c 0.09375,0 0.25,0.015625 0.25,0.328125 0,0.25 -0.109375,0.53125 -0.1875,0.703125 -0.4375,1.171875 -0.546875,1.625 -0.546875,2.015625 0,0.90625 0.65625,1.25 1.40625,1.25 0.171875,0 0.640625,0 1.03125,-0.703125 0.265625,0.640625 0.953125,0.703125 1.25,0.703125 0.75,0 1.1875,-0.625 1.453125,-1.21875 0.328125,-0.78125 0.65625,-2.125 0.65625,-2.59375 0,-0.546875 -0.265625,-0.703125 -0.4375,-0.703125 -0.25,0 -0.5,0.265625 -0.5,0.484375 0,0.125 0.0625,0.1875 0.140625,0.265625 0.109375,0.109375 0.359375,0.359375 0.359375,0.84375 0,0.34375 -0.28125,1.3125 -0.546875,1.828125 -0.25,0.53125 -0.609375,0.875 -1.09375,0.875 -0.46875,0 -0.734375,-0.296875 -0.734375,-0.875 0,-0.265625 0.0625,-0.578125 0.109375,-0.71875 z m 0,0"
               id="id-1ff69596-0037-4d0f-8f55-5e0250148c52" />
          </symbol>
          <symbol
             overflow="visible"
             id="id-df1da44c-626f-4524-99fb-0aea29180ac8">
            <path
               style="stroke:none;stroke-width:0"
               d=""
               id="id-86a6e899-7ff6-4559-bd61-ef85a07cb9e7" />
          </symbol>
          <symbol
             overflow="visible"
             id="id-3eb99388-7094-43e5-a5be-b9c7d086c1ef">
            <path
               style="stroke:none;stroke-width:0"
               d="m 2.328125,-4.4375 c 0,-0.1875 0,-0.1875 -0.203125,-0.1875 -0.453125,0.4375 -1.078125,0.4375 -1.359375,0.4375 v 0.25 c 0.15625,0 0.625,0 1,-0.1875 v 3.546875 c 0,0.234375 0,0.328125 -0.6875,0.328125 H 0.8125 V 0 c 0.125,0 0.984375,-0.03125 1.234375,-0.03125 0.21875,0 1.09375,0.03125 1.25,0.03125 V -0.25 H 3.03125 c -0.703125,0 -0.703125,-0.09375 -0.703125,-0.328125 z m 0,0"
               id="id-b2448122-b4e0-465f-99ee-19061dd17dee" />
          </symbol>
        </g>
      </defs>
      <g
         id="id-380b625e-64b1-441d-b0bf-d3ad0db667ee"
         transform="translate(-148.993,-124.794)" />
    </g>
    <g
       style="fill:#000000;fill-opacity:1"
       id="id-4553eb72-3ad1-48b8-af13-517ba390e8a8"
       transform="matrix(0.39178217,0,0,0.39178217,103.9952,19.102485)" />
    <path
       sodipodi:type="star"
       style="fill:none;stroke:#000000;stroke-width:0.466;stroke-linecap:round;stroke-linejoin:bevel;stroke-miterlimit:2.6;stroke-opacity:1"
       id="path1"
       inkscape:flatsided="true"
       sodipodi:sides="3"
       sodipodi:cx="66.944984"
       sodipodi:cy="39.119205"
       sodipodi:r1="24.989536"
       sodipodi:r2="12.277329"
       sodipodi:arg1="0.5241161"
       sodipodi:arg2="1.5713137"
       inkscape:rounded="0"
       inkscape:randomized="0"
       d="M 88.580091,51.625168 45.29695,51.602776 66.957912,14.129673 Z"
       inkscape:transform-center-x="0.068718943"
       inkscape:transform-center-y="-6.0790562"
       transform="translate(-9.512379,31.760391)" />
    <ellipse
       style="display:inline;fill:#788ed2;fill-opacity:1;stroke:#000000;stroke-width:0.35;stroke-linecap:round;stroke-dasharray:none;stroke-opacity:1"
       id="path1-2-9"
       cx="79.005753"
       cy="83.236717"
       rx="1.1873231"
       ry="1.187323" />
    <ellipse
       style="display:inline;fill:#788ed2;fill-opacity:1;stroke:#000000;stroke-width:0.35;stroke-linecap:round;stroke-dasharray:none;stroke-opacity:1"
       id="path1-2-9-3"
       cx="36.003666"
       cy="83.19783"
       rx="1.1873231"
       ry="1.187323" />
    <ellipse
       style="display:inline;fill:#788ed2;fill-opacity:1;stroke:#000000;stroke-width:0.35;stroke-linecap:round;stroke-dasharray:none;stroke-opacity:1"
       id="path1-2-9-3-6"
       cx="57.484818"
       cy="45.823933"
       rx="1.1873231"
       ry="1.187323" />
    <ellipse
       style="display:inline;fill:#788ed2;fill-opacity:1;stroke:#000000;stroke-width:0.35;stroke-linecap:round;stroke-dasharray:none;stroke-opacity:1"
       id="path1-2-9-3-6-2"
       cx="57.327557"
       cy="83.600914"
       rx="1.1873231"
       ry="1.187323" />
    <ellipse
       style="display:inline;fill:#788ed2;fill-opacity:1;stroke:#000000;stroke-width:0.35;stroke-linecap:round;stroke-dasharray:none;stroke-opacity:1"
       id="path1-2-9-3-6-2-5"
       cx="68.698372"
       cy="65.42495"
       rx="1.1873231"
       ry="1.187323" />
    <path
       sodipodi:type="star"
       style="fill:none;stroke:#000000;stroke-width:1.39528;stroke-linecap:round;stroke-linejoin:bevel;stroke-miterlimit:2.6;stroke-dasharray:none;stroke-opacity:1"
       id="path1-3"
       inkscape:flatsided="true"
       sodipodi:sides="3"
       sodipodi:cx="66.944984"
       sodipodi:cy="39.119205"
       sodipodi:r1="24.989536"
       sodipodi:r2="12.277329"
       sodipodi:arg1="0.5241161"
       sodipodi:arg2="1.5713137"
       inkscape:rounded="0"
       inkscape:randomized="0"
       d="M 88.580091,51.625168 45.29695,51.602776 66.957912,14.129673 Z"
       inkscape:transform-center-x="0.022162733"
       inkscape:transform-center-y="-1.960597"
       transform="matrix(0.32251668,0,0,0.32251668,94.722777,33.855002)" />
    <path
       style="fill:none;stroke:#000000;stroke-width:0.45;stroke-linecap:round;stroke-linejoin:bevel;stroke-miterlimit:2.6;stroke-dasharray:none;stroke-opacity:1"
       d="m 105.87292,54.827476 -6.970382,12.014736 v 0 l 6.983482,0.01311 z"
       id="path6" />
    <path
       style="fill:none;stroke:#000000;stroke-width:0.45;stroke-linecap:round;stroke-linejoin:bevel;stroke-miterlimit:2.6;stroke-dasharray:none;stroke-opacity:1"
       d="m 126.73723,55.449952 0.0131,12.054042 h 6.89176 z"
       id="path7" />
    <path
       style="fill:none;stroke:#000000;stroke-width:0.45;stroke-linecap:round;stroke-linejoin:bevel;stroke-miterlimit:2.6;stroke-dasharray:none;stroke-opacity:1"
       d="m 136.0284,82.11587 3.5638,-5.764977 3.35417,5.778079 z"
       id="path8" />
    <path
       style="fill:none;stroke:#000000;stroke-width:0.45;stroke-linecap:round;stroke-linejoin:bevel;stroke-miterlimit:2.6;stroke-dasharray:none;stroke-opacity:1"
       d="m 120.79274,86.232091 3.52448,-5.72567 -3.6031,-6.302168 z"
       id="path9" />
    <path
       style="fill:none;stroke:#000000;stroke-width:0.450001;stroke-linecap:round;stroke-linejoin:bevel;stroke-miterlimit:2.6;stroke-dasharray:none;stroke-opacity:1;marker-start:url(#ArrowWideRounded)"
       d="M 101.37242,58.572986 C 99.245713,54.128729 99.70477,48.28737 107.10053,46.994878 m -2.81769,6.551025"
       id="path10"
       sodipodi:nodetypes="cc" />
    <path
       style="fill:none;stroke:#000000;stroke-width:0.450001;stroke-linecap:round;stroke-linejoin:bevel;stroke-miterlimit:2.6;stroke-dasharray:none;stroke-opacity:1;marker-start:url(#ArrowWideRounded-1)"
       d="m 118.75359,73.415684 c -2.12671,-4.444257 -1.66765,-10.285616 5.72811,-11.578108 m -2.81769,6.551025"
       id="path10-7"
       sodipodi:nodetypes="cc" />
    <path
       style="fill:none;stroke:#000000;stroke-width:0.450001;stroke-linecap:round;stroke-linejoin:bevel;stroke-miterlimit:2.6;stroke-dasharray:none;stroke-opacity:1;marker-start:url(#ArrowWideRounded-7)"
       d="m 131.83184,58.572988 c 2.12671,-4.444257 1.66765,-10.285616 -5.72811,-11.578108 m 2.81769,6.551025"
       id="path10-0"
       sodipodi:nodetypes="cc" />
    <path
       style="fill:none;stroke:#000000;stroke-width:0.450001;stroke-linecap:round;stroke-linejoin:bevel;stroke-miterlimit:2.6;stroke-dasharray:none;stroke-opacity:1;marker-start:url(#ArrowWideRounded-7-1)"
       d="m 140.76834,74.869856 c 2.12671,-4.444257 1.66765,-10.285616 -5.72811,-11.578108 m 2.81769,6.551025"
       id="path10-0-2"
       sodipodi:nodetypes="cc" />
    <g
       transform="matrix(0.18523568,0,0,0.18523568,91.973695,39.164442)"
       ns18:version="1.10.2"
       ns18:texconverter="pdflatex"
       ns18:pdfconverter="inkscape"
       ns18:text="$\\begin{pmatrix} 1 \\\\ 0 \\\\ 0 \\end{pmatrix}$\n\n$\\begin{pmatrix} 0 \\\\ 1 \\\\ 0 \\end{pmatrix}$\n\n$\\begin{pmatrix} 0 \\\\ 0 \\\\ 1 \\end{pmatrix}$"
       ns18:preamble="/home/michael/.config/inkscape/extensions/textext/default_packages.tex"
       ns18:scale="1.6"
       ns18:alignment="middle center"
       ns18:stroke-to-path="0"
       ns18:inkscapeversion="1.4.3"
       ns18:jacobian_sqrt="0.564445"
       id="g23">
      <defs
         id="id-639f2486-bac5-4aa3-83c7-618bc464a81f">
        <g
           id="id-6571e100-946a-40e4-b37c-32b1aff71493">
          <symbol
             overflow="visible"
             id="id-c6642f93-df40-4c40-bd99-d49ecb8da4ae">
            <path
               style="stroke:none;stroke-width:0"
               d=""
               id="id-0c891303-57f9-42ba-b1d3-37004df956dd" />
          </symbol>
          <symbol
             overflow="visible"
             id="id-f46a8831-9ab1-48fd-8223-a087b05294f9">
            <path
               style="stroke:none;stroke-width:0"
               d="M 3.734375,17.640625 C 3.953125,17.640625 4,17.640625 4,17.5 4.03125,10.515625 4.828125,4.71875 8.328125,-0.15625 c 0.0625,-0.09375 0.0625,-0.109375 0.0625,-0.140625 0,-0.09375 -0.0625,-0.09375 -0.21875,-0.09375 -0.171875,0 -0.1875,0 -0.203125,0.015625 -0.046875,0.03125 -1.3125,1.484375 -2.3125,3.5 -1.3125,2.625 -2.140625,5.640625 -2.515625,9.28125 -0.03125,0.296875 -0.234375,2.375 -0.234375,4.734375 v 0.390625 c 0,0.109375 0.0625,0.109375 0.28125,0.109375 z m 0,0"
               id="id-78a28637-7833-4ab6-9a71-35addbc6d804" />
          </symbol>
          <symbol
             overflow="visible"
             id="id-38022002-67bc-4872-b3b0-6464e6ca9412">
            <path
               style="stroke:none;stroke-width:0"
               d="m 3.1875,-0.5 c -0.21875,0 -0.28125,0 -0.28125,0.109375 V 0 c 0,6.09375 1.078125,9.65625 1.390625,10.671875 C 4.96875,12.875 6.078125,15.21875 7.75,17.265625 7.890625,17.453125 7.9375,17.5 7.96875,17.515625 8,17.53125 8,17.53125 8.171875,17.53125 c 0.15625,0 0.21875,0 0.21875,-0.09375 0,-0.01563 0,-0.04687 -0.0625,-0.125 C 5.015625,12.703125 4.015625,7.15625 4,-0.359375 4,-0.5 3.953125,-0.5 3.734375,-0.5 Z m 0,0"
               id="id-769caebf-fe42-4905-a922-f1c13cf97379" />
          </symbol>
          <symbol
             overflow="visible"
             id="id-5faf9d04-4321-4ee9-841f-17621090f197">
            <path
               style="stroke:none;stroke-width:0"
               d="M 5.8125,17.140625 C 5.8125,11.0625 4.71875,7.484375 4.421875,6.484375 3.734375,4.265625 2.625,1.9375 0.96875,-0.125 0.8125,-0.296875 0.78125,-0.34375 0.734375,-0.375 c -0.015625,0 -0.03125,-0.015625 -0.1875,-0.015625 -0.140625,0 -0.234375,0 -0.234375,0.09375 0,0.03125 0,0.046875 0.140625,0.234375 3.46875,4.84375 4.234375,10.8125 4.25,17.5625 0,0.140625 0.0625,0.140625 0.28125,0.140625 H 5.53125 c 0.203125,0 0.265625,0 0.28125,-0.109375 z m 0,0"
               id="id-be4d3097-5442-4abe-b610-87365f74c035" />
          </symbol>
          <symbol
             overflow="visible"
             id="id-8d9b533b-b33e-402c-9d8c-85a2b05ecac5">
            <path
               style="stroke:none;stroke-width:0"
               d="M 5.8125,-0.390625 C 5.796875,-0.5 5.734375,-0.5 5.53125,-0.5 H 4.984375 c -0.21875,0 -0.28125,0 -0.28125,0.140625 0,1.03125 -0.015625,3.40625 -0.265625,5.875 C 3.890625,10.671875 2.578125,14.25 0.390625,17.3125 0.3125,17.390625 0.3125,17.421875 0.3125,17.4375 c 0,0.09375 0.09375,0.09375 0.234375,0.09375 0.15625,0 0.1875,0 0.203125,-0.01563 C 0.78125,17.48438 2.046875,16.03125 3.0625,14.03125 4.375,11.390625 5.203125,8.375 5.578125,4.75 5.609375,4.4375 5.8125,2.359375 5.8125,0 Z m 0,0"
               id="id-83a8342b-88e7-4713-a3c1-95d92826d1b2" />
          </symbol>
          <symbol
             overflow="visible"
             id="id-e42f8f3d-9ab3-49e4-8111-88e28530d552">
            <path
               style="stroke:none;stroke-width:0"
               d=""
               id="id-e6f406bf-c0b6-4d20-b76e-86242d479b7e" />
          </symbol>
          <symbol
             overflow="visible"
             id="id-55f2b187-8fa3-4748-9a41-c9d7b0ad00df">
            <path
               style="stroke:none;stroke-width:0"
               d="m 2.9375,-6.375 c 0,-0.25 0,-0.265625 -0.234375,-0.265625 C 2.078125,-6 1.203125,-6 0.890625,-6 v 0.3125 c 0.203125,0 0.78125,0 1.296875,-0.265625 v 5.171875 c 0,0.359375 -0.03125,0.46875 -0.921875,0.46875 h -0.3125 V 0 c 0.34375,-0.03125 1.203125,-0.03125 1.609375,-0.03125 0.390625,0 1.265625,0 1.609375,0.03125 v -0.3125 h -0.3125 c -0.90625,0 -0.921875,-0.109375 -0.921875,-0.46875 z m 0,0"
               id="id-f783f22b-e7e8-4fbb-b31f-7992c1861cfb" />
          </symbol>
          <symbol
             overflow="visible"
             id="id-c5484f7f-9f5f-431d-8f2a-271322447491">
            <path
               style="stroke:none;stroke-width:0"
               d="m 4.578125,-3.1875 c 0,-0.796875 -0.046875,-1.59375 -0.390625,-2.328125 -0.453125,-0.96875 -1.28125,-1.125 -1.6875,-1.125 -0.609375,0 -1.328125,0.265625 -1.75,1.1875 -0.3125,0.6875 -0.359375,1.46875 -0.359375,2.265625 0,0.75 0.03125,1.640625 0.453125,2.40625 0.421875,0.796875 1.15625,1 1.640625,1 0.53125,0 1.296875,-0.203125 1.734375,-1.15625 0.3125,-0.6875 0.359375,-1.46875 0.359375,-2.25 z M 2.484375,0 C 2.09375,0 1.5,-0.25 1.328125,-1.203125 1.21875,-1.796875 1.21875,-2.71875 1.21875,-3.3125 c 0,-0.640625 0,-1.296875 0.078125,-1.828125 0.1875,-1.1875 0.9375,-1.28125 1.1875,-1.28125 0.328125,0 0.984375,0.1875 1.171875,1.171875 0.109375,0.5625 0.109375,1.3125 0.109375,1.9375 0,0.75 0,1.421875 -0.109375,2.0625 C 3.5,-0.296875 2.9375,0 2.484375,0 Z m 0,0"
               id="id-b7bb1854-b8ba-42c5-8894-75ef67176cea" />
          </symbol>
        </g>
      </defs>
      <g
         id="id-cda827a5-b43c-40d6-9267-21a7644cf08e"
         transform="translate(-151.618,-124.809)">
        <g
           id="g26"
           transform="translate(-171.50423,16.229301)">
          <g
             style="fill:#000000;fill-opacity:1"
             id="id-e3e6417a-60f6-4946-b851-c0d009ac7856">
            <g
               transform="translate(148.712,125.2)"
               id="g1">
              <path
                 style="stroke:none;stroke-width:0"
                 d="M 3.734375,17.640625 C 3.953125,17.640625 4,17.640625 4,17.5 4.03125,10.515625 4.828125,4.71875 8.328125,-0.15625 c 0.0625,-0.09375 0.0625,-0.109375 0.0625,-0.140625 0,-0.09375 -0.0625,-0.09375 -0.21875,-0.09375 -0.171875,0 -0.1875,0 -0.203125,0.015625 -0.046875,0.03125 -1.3125,1.484375 -2.3125,3.5 -1.3125,2.625 -2.140625,5.640625 -2.515625,9.28125 -0.03125,0.296875 -0.234375,2.375 -0.234375,4.734375 v 0.390625 c 0,0.109375 0.0625,0.109375 0.28125,0.109375 z m 0,0"
                 id="id-14227d1c-9993-43eb-8da0-076cfd7ac9e0" />
            </g>
          </g>
          <g
             style="fill:#000000;fill-opacity:1"
             id="id-9122687c-6fb8-4f44-88ca-7508770e02b4">
            <g
               transform="translate(148.712,143.133)"
               id="g2">
              <path
                 style="stroke:none;stroke-width:0"
                 d="m 3.1875,-0.5 c -0.21875,0 -0.28125,0 -0.28125,0.109375 V 0 c 0,6.09375 1.078125,9.65625 1.390625,10.671875 C 4.96875,12.875 6.078125,15.21875 7.75,17.265625 7.890625,17.453125 7.9375,17.5 7.96875,17.515625 8,17.53125 8,17.53125 8.171875,17.53125 c 0.15625,0 0.21875,0 0.21875,-0.09375 0,-0.01563 0,-0.04687 -0.0625,-0.125 C 5.015625,12.703125 4.015625,7.15625 4,-0.359375 4,-0.5 3.953125,-0.5 3.734375,-0.5 Z m 0,0"
                 id="id-1c159f2c-5706-4402-9d2e-476c2445b1c4" />
            </g>
          </g>
          <g
             style="fill:#000000;fill-opacity:1"
             id="id-e46fa18a-e283-4144-a9f3-761a035834e2">
            <g
               transform="translate(157.43,133.171)"
               id="g3">
              <path
                 style="stroke:none;stroke-width:0"
                 d="m 2.9375,-6.375 c 0,-0.25 0,-0.265625 -0.234375,-0.265625 C 2.078125,-6 1.203125,-6 0.890625,-6 v 0.3125 c 0.203125,0 0.78125,0 1.296875,-0.265625 v 5.171875 c 0,0.359375 -0.03125,0.46875 -0.921875,0.46875 h -0.3125 V 0 c 0.34375,-0.03125 1.203125,-0.03125 1.609375,-0.03125 0.390625,0 1.265625,0 1.609375,0.03125 v -0.3125 h -0.3125 c -0.90625,0 -0.921875,-0.109375 -0.921875,-0.46875 z m 0,0"
                 id="id-35049c4b-a273-481d-9d4e-d35f1ed4d1f9" />
            </g>
          </g>
          <g
             style="fill:#000000;fill-opacity:1"
             id="id-a676e002-e391-48ca-b250-e4e9ab46ead7">
            <g
               transform="translate(157.43,145.126)"
               id="g4">
              <path
                 style="stroke:none;stroke-width:0"
                 d="m 4.578125,-3.1875 c 0,-0.796875 -0.046875,-1.59375 -0.390625,-2.328125 -0.453125,-0.96875 -1.28125,-1.125 -1.6875,-1.125 -0.609375,0 -1.328125,0.265625 -1.75,1.1875 -0.3125,0.6875 -0.359375,1.46875 -0.359375,2.265625 0,0.75 0.03125,1.640625 0.453125,2.40625 0.421875,0.796875 1.15625,1 1.640625,1 0.53125,0 1.296875,-0.203125 1.734375,-1.15625 0.3125,-0.6875 0.359375,-1.46875 0.359375,-2.25 z M 2.484375,0 C 2.09375,0 1.5,-0.25 1.328125,-1.203125 1.21875,-1.796875 1.21875,-2.71875 1.21875,-3.3125 c 0,-0.640625 0,-1.296875 0.078125,-1.828125 0.1875,-1.1875 0.9375,-1.28125 1.1875,-1.28125 0.328125,0 0.984375,0.1875 1.171875,1.171875 0.109375,0.5625 0.109375,1.3125 0.109375,1.9375 0,0.75 0,1.421875 -0.109375,2.0625 C 3.5,-0.296875 2.9375,0 2.484375,0 Z m 0,0"
                 id="id-838dddd9-e04c-454b-b9e8-9f7cdaaa0d25" />
            </g>
          </g>
          <g
             style="fill:#000000;fill-opacity:1"
             id="id-691189c0-c6dc-41fe-8847-5667cc8cae2f">
            <g
               transform="translate(157.43,157.081)"
               id="g5">
              <path
                 style="stroke:none;stroke-width:0"
                 d="m 4.578125,-3.1875 c 0,-0.796875 -0.046875,-1.59375 -0.390625,-2.328125 -0.453125,-0.96875 -1.28125,-1.125 -1.6875,-1.125 -0.609375,0 -1.328125,0.265625 -1.75,1.1875 -0.3125,0.6875 -0.359375,1.46875 -0.359375,2.265625 0,0.75 0.03125,1.640625 0.453125,2.40625 0.421875,0.796875 1.15625,1 1.640625,1 0.53125,0 1.296875,-0.203125 1.734375,-1.15625 0.3125,-0.6875 0.359375,-1.46875 0.359375,-2.25 z M 2.484375,0 C 2.09375,0 1.5,-0.25 1.328125,-1.203125 1.21875,-1.796875 1.21875,-2.71875 1.21875,-3.3125 c 0,-0.640625 0,-1.296875 0.078125,-1.828125 0.1875,-1.1875 0.9375,-1.28125 1.1875,-1.28125 0.328125,0 0.984375,0.1875 1.171875,1.171875 0.109375,0.5625 0.109375,1.3125 0.109375,1.9375 0,0.75 0,1.421875 -0.109375,2.0625 C 3.5,-0.296875 2.9375,0 2.484375,0 Z m 0,0"
                 id="id-854e0a19-6b2d-4435-9a34-b3c3c04f7905" />
            </g>
          </g>
          <g
             style="fill:#000000;fill-opacity:1"
             id="id-03f1a375-ae91-4588-b76d-bcef8b0e055e">
            <g
               transform="translate(162.411,125.2)"
               id="g6">
              <path
                 style="stroke:none;stroke-width:0"
                 d="M 5.8125,17.140625 C 5.8125,11.0625 4.71875,7.484375 4.421875,6.484375 3.734375,4.265625 2.625,1.9375 0.96875,-0.125 0.8125,-0.296875 0.78125,-0.34375 0.734375,-0.375 c -0.015625,0 -0.03125,-0.015625 -0.1875,-0.015625 -0.140625,0 -0.234375,0 -0.234375,0.09375 0,0.03125 0,0.046875 0.140625,0.234375 3.46875,4.84375 4.234375,10.8125 4.25,17.5625 0,0.140625 0.0625,0.140625 0.28125,0.140625 H 5.53125 c 0.203125,0 0.265625,0 0.28125,-0.109375 z m 0,0"
                 id="id-4fcb85d2-5c44-47e0-b6a4-631ee0aaf79b" />
            </g>
          </g>
          <g
             style="fill:#000000;fill-opacity:1"
             id="id-88751a18-8281-48dc-8ec0-09914deaa9dc">
            <g
               transform="translate(162.411,143.133)"
               id="g7">
              <path
                 style="stroke:none;stroke-width:0"
                 d="M 5.8125,-0.390625 C 5.796875,-0.5 5.734375,-0.5 5.53125,-0.5 H 4.984375 c -0.21875,0 -0.28125,0 -0.28125,0.140625 0,1.03125 -0.015625,3.40625 -0.265625,5.875 C 3.890625,10.671875 2.578125,14.25 0.390625,17.3125 0.3125,17.390625 0.3125,17.421875 0.3125,17.4375 c 0,0.09375 0.09375,0.09375 0.234375,0.09375 0.15625,0 0.1875,0 0.203125,-0.01563 C 0.78125,17.48438 2.046875,16.03125 3.0625,14.03125 4.375,11.390625 5.203125,8.375 5.578125,4.75 5.609375,4.4375 5.8125,2.359375 5.8125,0 Z m 0,0"
                 id="id-93f21950-a0fa-4c56-86bd-3c9c3ed446a0" />
            </g>
          </g>
        </g>
        <g
           id="g25"
           transform="translate(-320.63834,153.95904)">
          <g
             style="fill:#000000;fill-opacity:1"
             id="id-d347932a-c096-4824-859b-d5833ba17c23">
            <g
               transform="translate(148.712,162.063)"
               id="g8">
              <path
                 style="stroke:none;stroke-width:0"
                 d="M 3.734375,17.640625 C 3.953125,17.640625 4,17.640625 4,17.5 4.03125,10.515625 4.828125,4.71875 8.328125,-0.15625 c 0.0625,-0.09375 0.0625,-0.109375 0.0625,-0.140625 0,-0.09375 -0.0625,-0.09375 -0.21875,-0.09375 -0.171875,0 -0.1875,0 -0.203125,0.015625 -0.046875,0.03125 -1.3125,1.484375 -2.3125,3.5 -1.3125,2.625 -2.140625,5.640625 -2.515625,9.28125 -0.03125,0.296875 -0.234375,2.375 -0.234375,4.734375 v 0.390625 c 0,0.109375 0.0625,0.109375 0.28125,0.109375 z m 0,0"
                 id="id-d6621f3b-65ab-4f1c-955a-9ab15e219b35" />
            </g>
          </g>
          <g
             style="fill:#000000;fill-opacity:1"
             id="id-2c107480-18d0-4819-a191-98425b916b2c">
            <g
               transform="translate(148.712,179.995)"
               id="g9">
              <path
                 style="stroke:none;stroke-width:0"
                 d="m 3.1875,-0.5 c -0.21875,0 -0.28125,0 -0.28125,0.109375 V 0 c 0,6.09375 1.078125,9.65625 1.390625,10.671875 C 4.96875,12.875 6.078125,15.21875 7.75,17.265625 7.890625,17.453125 7.9375,17.5 7.96875,17.515625 8,17.53125 8,17.53125 8.171875,17.53125 c 0.15625,0 0.21875,0 0.21875,-0.09375 0,-0.01563 0,-0.04687 -0.0625,-0.125 C 5.015625,12.703125 4.015625,7.15625 4,-0.359375 4,-0.5 3.953125,-0.5 3.734375,-0.5 Z m 0,0"
                 id="id-3a56ae46-a0cc-4f4a-b3f1-e97732aefd31" />
            </g>
          </g>
          <g
             style="fill:#000000;fill-opacity:1"
             id="id-c2c50c67-8c8a-4467-bfaf-9978e9e2eea4">
            <g
               transform="translate(157.43,170.033)"
               id="g10">
              <path
                 style="stroke:none;stroke-width:0"
                 d="m 4.578125,-3.1875 c 0,-0.796875 -0.046875,-1.59375 -0.390625,-2.328125 -0.453125,-0.96875 -1.28125,-1.125 -1.6875,-1.125 -0.609375,0 -1.328125,0.265625 -1.75,1.1875 -0.3125,0.6875 -0.359375,1.46875 -0.359375,2.265625 0,0.75 0.03125,1.640625 0.453125,2.40625 0.421875,0.796875 1.15625,1 1.640625,1 0.53125,0 1.296875,-0.203125 1.734375,-1.15625 0.3125,-0.6875 0.359375,-1.46875 0.359375,-2.25 z M 2.484375,0 C 2.09375,0 1.5,-0.25 1.328125,-1.203125 1.21875,-1.796875 1.21875,-2.71875 1.21875,-3.3125 c 0,-0.640625 0,-1.296875 0.078125,-1.828125 0.1875,-1.1875 0.9375,-1.28125 1.1875,-1.28125 0.328125,0 0.984375,0.1875 1.171875,1.171875 0.109375,0.5625 0.109375,1.3125 0.109375,1.9375 0,0.75 0,1.421875 -0.109375,2.0625 C 3.5,-0.296875 2.9375,0 2.484375,0 Z m 0,0"
                 id="id-9f834c71-992b-446b-b4cc-a04dc239e5ba" />
            </g>
          </g>
          <g
             style="fill:#000000;fill-opacity:1"
             id="id-c2e20022-379a-4213-a80e-598031ceb89b">
            <g
               transform="translate(157.43,181.988)"
               id="g11">
              <path
                 style="stroke:none;stroke-width:0"
                 d="m 2.9375,-6.375 c 0,-0.25 0,-0.265625 -0.234375,-0.265625 C 2.078125,-6 1.203125,-6 0.890625,-6 v 0.3125 c 0.203125,0 0.78125,0 1.296875,-0.265625 v 5.171875 c 0,0.359375 -0.03125,0.46875 -0.921875,0.46875 h -0.3125 V 0 c 0.34375,-0.03125 1.203125,-0.03125 1.609375,-0.03125 0.390625,0 1.265625,0 1.609375,0.03125 v -0.3125 h -0.3125 c -0.90625,0 -0.921875,-0.109375 -0.921875,-0.46875 z m 0,0"
                 id="id-c135c0d7-8e52-43c1-ae98-152537de17c7" />
            </g>
          </g>
          <g
             style="fill:#000000;fill-opacity:1"
             id="id-9a9ccbd5-6704-465d-ba9e-74857bb1e9a3">
            <g
               transform="translate(157.43,193.943)"
               id="g12">
              <path
                 style="stroke:none;stroke-width:0"
                 d="m 4.578125,-3.1875 c 0,-0.796875 -0.046875,-1.59375 -0.390625,-2.328125 -0.453125,-0.96875 -1.28125,-1.125 -1.6875,-1.125 -0.609375,0 -1.328125,0.265625 -1.75,1.1875 -0.3125,0.6875 -0.359375,1.46875 -0.359375,2.265625 0,0.75 0.03125,1.640625 0.453125,2.40625 0.421875,0.796875 1.15625,1 1.640625,1 0.53125,0 1.296875,-0.203125 1.734375,-1.15625 0.3125,-0.6875 0.359375,-1.46875 0.359375,-2.25 z M 2.484375,0 C 2.09375,0 1.5,-0.25 1.328125,-1.203125 1.21875,-1.796875 1.21875,-2.71875 1.21875,-3.3125 c 0,-0.640625 0,-1.296875 0.078125,-1.828125 0.1875,-1.1875 0.9375,-1.28125 1.1875,-1.28125 0.328125,0 0.984375,0.1875 1.171875,1.171875 0.109375,0.5625 0.109375,1.3125 0.109375,1.9375 0,0.75 0,1.421875 -0.109375,2.0625 C 3.5,-0.296875 2.9375,0 2.484375,0 Z m 0,0"
                 id="id-e3dcc8b7-35c4-4c1b-92c3-16aef412c510" />
            </g>
          </g>
          <g
             style="fill:#000000;fill-opacity:1"
             id="id-6fedd0be-5779-4147-9f33-697db8f1f07a">
            <g
               transform="translate(162.411,162.063)"
               id="g13">
              <path
                 style="stroke:none;stroke-width:0"
                 d="M 5.8125,17.140625 C 5.8125,11.0625 4.71875,7.484375 4.421875,6.484375 3.734375,4.265625 2.625,1.9375 0.96875,-0.125 0.8125,-0.296875 0.78125,-0.34375 0.734375,-0.375 c -0.015625,0 -0.03125,-0.015625 -0.1875,-0.015625 -0.140625,0 -0.234375,0 -0.234375,0.09375 0,0.03125 0,0.046875 0.140625,0.234375 3.46875,4.84375 4.234375,10.8125 4.25,17.5625 0,0.140625 0.0625,0.140625 0.28125,0.140625 H 5.53125 c 0.203125,0 0.265625,0 0.28125,-0.109375 z m 0,0"
                 id="id-6c3fac00-4907-489e-bedc-deea2398c66c" />
            </g>
          </g>
          <g
             style="fill:#000000;fill-opacity:1"
             id="id-643ca734-0ac5-4b97-845a-fcf3f9d44117">
            <g
               transform="translate(162.411,179.995)"
               id="g14">
              <path
                 style="stroke:none;stroke-width:0"
                 d="M 5.8125,-0.390625 C 5.796875,-0.5 5.734375,-0.5 5.53125,-0.5 H 4.984375 c -0.21875,0 -0.28125,0 -0.28125,0.140625 0,1.03125 -0.015625,3.40625 -0.265625,5.875 C 3.890625,10.671875 2.578125,14.25 0.390625,17.3125 0.3125,17.390625 0.3125,17.421875 0.3125,17.4375 c 0,0.09375 0.09375,0.09375 0.234375,0.09375 0.15625,0 0.1875,0 0.203125,-0.01563 C 0.78125,17.48438 2.046875,16.03125 3.0625,14.03125 4.375,11.390625 5.203125,8.375 5.578125,4.75 5.609375,4.4375 5.8125,2.359375 5.8125,0 Z m 0,0"
                 id="id-34db121c-18e9-491f-8830-32b411351e16" />
            </g>
          </g>
        </g>
        <g
           id="g24"
           transform="translate(-62.724054,120.84249)">
          <g
             style="fill:#000000;fill-opacity:1"
             id="id-7be2af65-0d72-41bd-a02e-277cebe7a9ef">
            <g
               transform="translate(148.712,198.925)"
               id="g15">
              <path
                 style="stroke:none;stroke-width:0"
                 d="M 3.734375,17.640625 C 3.953125,17.640625 4,17.640625 4,17.5 4.03125,10.515625 4.828125,4.71875 8.328125,-0.15625 c 0.0625,-0.09375 0.0625,-0.109375 0.0625,-0.140625 0,-0.09375 -0.0625,-0.09375 -0.21875,-0.09375 -0.171875,0 -0.1875,0 -0.203125,0.015625 -0.046875,0.03125 -1.3125,1.484375 -2.3125,3.5 -1.3125,2.625 -2.140625,5.640625 -2.515625,9.28125 -0.03125,0.296875 -0.234375,2.375 -0.234375,4.734375 v 0.390625 c 0,0.109375 0.0625,0.109375 0.28125,0.109375 z m 0,0"
                 id="id-95f78538-26d6-4541-aa24-093d468106ef" />
            </g>
          </g>
          <g
             style="fill:#000000;fill-opacity:1"
             id="id-f81ce27b-883a-4ac9-989a-85fb4635e64b">
            <g
               transform="translate(148.712,216.858)"
               id="g16">
              <path
                 style="stroke:none;stroke-width:0"
                 d="m 3.1875,-0.5 c -0.21875,0 -0.28125,0 -0.28125,0.109375 V 0 c 0,6.09375 1.078125,9.65625 1.390625,10.671875 C 4.96875,12.875 6.078125,15.21875 7.75,17.265625 7.890625,17.453125 7.9375,17.5 7.96875,17.515625 8,17.53125 8,17.53125 8.171875,17.53125 c 0.15625,0 0.21875,0 0.21875,-0.09375 0,-0.01563 0,-0.04687 -0.0625,-0.125 C 5.015625,12.703125 4.015625,7.15625 4,-0.359375 4,-0.5 3.953125,-0.5 3.734375,-0.5 Z m 0,0"
                 id="id-0f5ab32c-81d5-4ada-9755-9c91d2642778" />
            </g>
          </g>
          <g
             style="fill:#000000;fill-opacity:1"
             id="id-4d4b2be6-d90f-4ec2-aaf2-66c8ebd815f3">
            <g
               transform="translate(157.43,206.895)"
               id="g17">
              <path
                 style="stroke:none;stroke-width:0"
                 d="m 4.578125,-3.1875 c 0,-0.796875 -0.046875,-1.59375 -0.390625,-2.328125 -0.453125,-0.96875 -1.28125,-1.125 -1.6875,-1.125 -0.609375,0 -1.328125,0.265625 -1.75,1.1875 -0.3125,0.6875 -0.359375,1.46875 -0.359375,2.265625 0,0.75 0.03125,1.640625 0.453125,2.40625 0.421875,0.796875 1.15625,1 1.640625,1 0.53125,0 1.296875,-0.203125 1.734375,-1.15625 0.3125,-0.6875 0.359375,-1.46875 0.359375,-2.25 z M 2.484375,0 C 2.09375,0 1.5,-0.25 1.328125,-1.203125 1.21875,-1.796875 1.21875,-2.71875 1.21875,-3.3125 c 0,-0.640625 0,-1.296875 0.078125,-1.828125 0.1875,-1.1875 0.9375,-1.28125 1.1875,-1.28125 0.328125,0 0.984375,0.1875 1.171875,1.171875 0.109375,0.5625 0.109375,1.3125 0.109375,1.9375 0,0.75 0,1.421875 -0.109375,2.0625 C 3.5,-0.296875 2.9375,0 2.484375,0 Z m 0,0"
                 id="id-01608db7-ee02-4c60-b394-e32f665282c2" />
            </g>
          </g>
          <g
             style="fill:#000000;fill-opacity:1"
             id="id-e417b36b-00a7-41f4-8734-82af1ed4e6a7">
            <g
               transform="translate(157.43,218.85)"
               id="g18">
              <path
                 style="stroke:none;stroke-width:0"
                 d="m 4.578125,-3.1875 c 0,-0.796875 -0.046875,-1.59375 -0.390625,-2.328125 -0.453125,-0.96875 -1.28125,-1.125 -1.6875,-1.125 -0.609375,0 -1.328125,0.265625 -1.75,1.1875 -0.3125,0.6875 -0.359375,1.46875 -0.359375,2.265625 0,0.75 0.03125,1.640625 0.453125,2.40625 0.421875,0.796875 1.15625,1 1.640625,1 0.53125,0 1.296875,-0.203125 1.734375,-1.15625 0.3125,-0.6875 0.359375,-1.46875 0.359375,-2.25 z M 2.484375,0 C 2.09375,0 1.5,-0.25 1.328125,-1.203125 1.21875,-1.796875 1.21875,-2.71875 1.21875,-3.3125 c 0,-0.640625 0,-1.296875 0.078125,-1.828125 0.1875,-1.1875 0.9375,-1.28125 1.1875,-1.28125 0.328125,0 0.984375,0.1875 1.171875,1.171875 0.109375,0.5625 0.109375,1.3125 0.109375,1.9375 0,0.75 0,1.421875 -0.109375,2.0625 C 3.5,-0.296875 2.9375,0 2.484375,0 Z m 0,0"
                 id="id-38d5bf34-beed-4ec0-be64-08ac91afe8c1" />
            </g>
          </g>
          <g
             style="fill:#000000;fill-opacity:1"
             id="id-a63401ee-c52f-46cc-bd41-4a7d893ff8d9">
            <g
               transform="translate(157.43,230.805)"
               id="g19">
              <path
                 style="stroke:none;stroke-width:0"
                 d="m 2.9375,-6.375 c 0,-0.25 0,-0.265625 -0.234375,-0.265625 C 2.078125,-6 1.203125,-6 0.890625,-6 v 0.3125 c 0.203125,0 0.78125,0 1.296875,-0.265625 v 5.171875 c 0,0.359375 -0.03125,0.46875 -0.921875,0.46875 h -0.3125 V 0 c 0.34375,-0.03125 1.203125,-0.03125 1.609375,-0.03125 0.390625,0 1.265625,0 1.609375,0.03125 v -0.3125 h -0.3125 c -0.90625,0 -0.921875,-0.109375 -0.921875,-0.46875 z m 0,0"
                 id="id-d67e8bc0-a871-4b91-8e9a-156289252a14" />
            </g>
          </g>
          <g
             style="fill:#000000;fill-opacity:1"
             id="id-9597a2b5-bf28-4566-924c-899fe96fb7d6">
            <g
               transform="translate(162.411,198.925)"
               id="g20">
              <path
                 style="stroke:none;stroke-width:0"
                 d="M 5.8125,17.140625 C 5.8125,11.0625 4.71875,7.484375 4.421875,6.484375 3.734375,4.265625 2.625,1.9375 0.96875,-0.125 0.8125,-0.296875 0.78125,-0.34375 0.734375,-0.375 c -0.015625,0 -0.03125,-0.015625 -0.1875,-0.015625 -0.140625,0 -0.234375,0 -0.234375,0.09375 0,0.03125 0,0.046875 0.140625,0.234375 3.46875,4.84375 4.234375,10.8125 4.25,17.5625 0,0.140625 0.0625,0.140625 0.28125,0.140625 H 5.53125 c 0.203125,0 0.265625,0 0.28125,-0.109375 z m 0,0"
                 id="id-2e1f7cb5-7548-4546-9979-11adb35bd246" />
            </g>
          </g>
          <g
             style="fill:#000000;fill-opacity:1"
             id="id-5b9d7cb2-ffc8-4991-9479-88eb40a3818c">
            <g
               transform="translate(162.411,216.858)"
               id="g21">
              <path
                 style="stroke:none;stroke-width:0"
                 d="M 5.8125,-0.390625 C 5.796875,-0.5 5.734375,-0.5 5.53125,-0.5 H 4.984375 c -0.21875,0 -0.28125,0 -0.28125,0.140625 0,1.03125 -0.015625,3.40625 -0.265625,5.875 C 3.890625,10.671875 2.578125,14.25 0.390625,17.3125 0.3125,17.390625 0.3125,17.421875 0.3125,17.4375 c 0,0.09375 0.09375,0.09375 0.234375,0.09375 0.15625,0 0.1875,0 0.203125,-0.01563 C 0.78125,17.48438 2.046875,16.03125 3.0625,14.03125 4.375,11.390625 5.203125,8.375 5.578125,4.75 5.609375,4.4375 5.8125,2.359375 5.8125,0 Z m 0,0"
                 id="id-42e45033-8a8d-4e2b-a30f-177ccbc5432f" />
            </g>
          </g>
        </g>
      </g>
    </g>
  </g>
</svg>
